<?xml version="1.0" encoding="utf-8"?>
<!-- Generator: Adobe Illustrator 16.0.0, SVG Export Plug-In . SVG Version: 6.00 Build 0)  -->
<!DOCTYPE svg PUBLIC "-//W3C//DTD SVG 1.1//EN" "http://www.w3.org/Graphics/SVG/1.1/DTD/svg11.dtd">
<svg version="1.1" id="Layer_1" xmlns="http://www.w3.org/2000/svg" xmlns:xlink="http://www.w3.org/1999/xlink" x="0px" y="0px"
	 width="80px" height="80px" viewBox="0 0 80 80" enable-background="new 0 0 80 80" xml:space="preserve">
<g>
	<path fill="#4693CF" d="M75.855,24.479c0-3.21-1.729-6.197-4.506-7.793L44.498,1.184c-2.725-1.583-6.293-1.578-9.012,0.007
		L8.635,16.692c-2.771,1.599-4.493,4.583-4.493,7.788v31.019c0,3.213,1.727,6.199,4.502,7.794l26.861,15.506
		C36.868,79.584,38.421,80,39.997,80c1.574,0,3.125-0.414,4.488-1.199l26.876-15.517c2.773-1.607,4.497-4.591,4.497-7.786
		L75.855,24.479z M42.446,75.264c-1.486,0.855-3.415,0.855-4.9-0.003l-8.903-5.14h9.839h4.144h8.728L42.446,75.264z M40.253,25.058
		c-1.097,0-1.988,0.892-1.988,1.987c0,0.86,0.551,1.591,1.314,1.869v0.712h-2.972v-5.161h7.292v5.161h-2.974v-0.712
		c0.766-0.278,1.313-1.009,1.313-1.869C42.239,25.949,41.348,25.058,40.253,25.058z M36.231,22.446
		c0.452-1.801,2.082-3.141,4.021-3.141s3.567,1.34,4.021,3.141H36.231z M44.879,31.645l4.188,28.269H31.438l4.188-28.269H44.879z
		 M49.466,61.933l1.69,6.169h-7.521V65.38c0-1.7-1.382-3.082-3.081-3.082s-3.083,1.382-3.083,3.082v2.722h-8.122l1.689-6.169H49.466
		z M41.616,65.38v2.722h-2.127V65.38c0-0.588,0.477-1.063,1.064-1.063C41.139,64.317,41.616,64.792,41.616,65.38z M69.317,59.75
		L54.85,68.102h-1.6l-2.019-7.372c-0.005-0.018-0.006-0.035-0.01-0.051L46.92,31.645h1.129c0.558,0,1.01-0.452,1.01-1.01
		s-0.452-1.009-1.01-1.009h-2.132v-5.161h1.155c0.559,0,1.01-0.452,1.01-1.009c0-0.558-0.451-1.01-1.01-1.01h-0.734
		c-0.429-2.595-2.481-4.648-5.075-5.076v-1.038c0-0.557-0.453-1.009-1.01-1.009c-0.558,0-1.01,0.452-1.01,1.009v1.038
		c-2.595,0.428-4.647,2.481-5.077,5.076h-0.733c-0.558,0-1.011,0.452-1.011,1.01c0,0.557,0.453,1.009,1.011,1.009h1.154v5.161
		h-2.131c-0.558,0-1.009,0.451-1.009,1.009s0.451,1.01,1.009,1.01h1.13l-4.308,29.069l-2.022,7.388h-2.11l-14.464-8.349
		c-1.516-0.87-2.457-2.501-2.457-4.255V24.479c0-1.75,0.938-3.379,2.452-4.252L37.535,4.722c0.744-0.434,1.596-0.664,2.461-0.664
		s1.712,0.226,2.455,0.658l26.861,15.509c1.518,0.871,2.46,2.5,2.46,4.253l0.003,31.019C71.775,57.242,70.833,58.871,69.317,59.75z"
		/>
	<path fill="#4693CF" d="M65.532,32.447l-14.841-4.476c-0.356-0.108-0.732,0.094-0.838,0.45c-0.108,0.356,0.093,0.731,0.448,0.839
		l14.843,4.475c0.063,0.02,0.129,0.029,0.194,0.029c0.289,0,0.556-0.188,0.645-0.479C66.09,32.93,65.888,32.554,65.532,32.447z"/>
	<path fill="#4693CF" d="M67.028,25.867h-18.16c-0.372,0-0.673,0.302-0.673,0.674c0,0.371,0.301,0.673,0.673,0.673h18.16
		c0.373,0,0.674-0.302,0.674-0.673C67.702,26.168,67.401,25.867,67.028,25.867z"/>
	<path fill="#4693CF" d="M29.309,27.971l-14.841,4.476c-0.355,0.106-0.558,0.482-0.451,0.838c0.089,0.291,0.355,0.479,0.646,0.479
		c0.064,0,0.13-0.009,0.194-0.029l14.842-4.475c0.355-0.108,0.557-0.482,0.449-0.839C30.041,28.065,29.666,27.863,29.309,27.971z"/>
	<path fill="#4693CF" d="M31.132,25.802h-18.16c-0.372,0-0.674,0.301-0.674,0.674c0,0.371,0.302,0.672,0.674,0.672h18.16
		c0.372,0,0.673-0.301,0.673-0.672C31.805,26.103,31.504,25.802,31.132,25.802z"/>
	<path fill="#4693CF" d="M14.468,20.062l14.841,4.475c0.066,0.02,0.131,0.029,0.195,0.029c0.29,0,0.557-0.187,0.644-0.479
		c0.107-0.356-0.094-0.732-0.449-0.838l-14.842-4.476c-0.356-0.106-0.731,0.094-0.84,0.45C13.91,19.579,14.112,19.954,14.468,20.062
		z"/>
	<path fill="#4693CF" d="M50.496,24.565c0.064,0,0.129-0.009,0.195-0.029l14.841-4.475c0.355-0.108,0.558-0.482,0.451-0.839
		c-0.108-0.356-0.482-0.558-0.839-0.45l-14.843,4.476c-0.355,0.106-0.557,0.482-0.448,0.838
		C49.939,24.378,50.206,24.565,50.496,24.565z"/>
	<path fill="#4693CF" d="M38.939,56.514h2.628c0.371,0,0.672-0.303,0.672-0.673v-2.367c0-1.095-0.892-1.987-1.986-1.987
		c-1.097,0-1.988,0.893-1.988,1.987v2.367C38.265,56.211,38.567,56.514,38.939,56.514z M39.61,53.474
		c0-0.354,0.289-0.641,0.643-0.641s0.64,0.287,0.64,0.641v1.693H39.61V53.474z"/>
	<path fill="#4693CF" d="M38.939,47.998h2.628c0.371,0,0.672-0.302,0.672-0.673v-2.367c0-1.095-0.892-1.986-1.986-1.986
		c-1.097,0-1.988,0.892-1.988,1.986v2.367C38.265,47.696,38.567,47.998,38.939,47.998z M39.61,44.958
		c0-0.354,0.289-0.641,0.643-0.641s0.64,0.287,0.64,0.641v1.693H39.61V44.958z"/>
	<path fill="#4693CF" d="M38.939,39.482h2.628c0.371,0,0.672-0.301,0.672-0.672v-2.367c0-1.095-0.892-1.987-1.986-1.987
		c-1.097,0-1.988,0.892-1.988,1.987v2.367C38.265,39.181,38.567,39.482,38.939,39.482z M39.61,36.442
		c0-0.354,0.289-0.641,0.643-0.641s0.64,0.287,0.64,0.641v1.693H39.61V36.442z"/>
</g>
</svg>
