<?xml version="1.0" encoding="utf-8"?>
<!-- Generator: Adobe Illustrator 16.0.0, SVG Export Plug-In . SVG Version: 6.00 Build 0)  -->
<!DOCTYPE svg PUBLIC "-//W3C//DTD SVG 1.1//EN" "http://www.w3.org/Graphics/SVG/1.1/DTD/svg11.dtd">
<svg version="1.1" id="Layer_1" xmlns="http://www.w3.org/2000/svg" xmlns:xlink="http://www.w3.org/1999/xlink" x="0px" y="0px"
	 width="40px" height="40px" viewBox="0 0 40 40" enable-background="new 0 0 40 40" xml:space="preserve">
<g>
	<defs>
		<path id="SVGID_1_" d="M18.056,0.523L4.131,8.563c-1.208,0.699-1.962,2.001-1.962,3.399v16.075c0,1.398,0.754,2.701,1.962,3.397
			l13.925,8.042c1.208,0.696,2.713,0.696,3.923,0l13.925-8.042c1.061-0.609,1.769-1.686,1.928-2.883V11.447
			c-0.159-1.196-0.867-2.272-1.928-2.884L21.981,0.522C21.374,0.174,20.695,0,20.017,0S18.66,0.175,18.056,0.523"/>
	</defs>
	<linearGradient id="SVGID_2_" gradientUnits="userSpaceOnUse" x1="3.7407" y1="36.2764" x2="34.6381" y2="5.379">
		<stop  offset="0" style="stop-color:#00B6F1"/>
		<stop  offset="1" style="stop-color:#0094BB"/>
	</linearGradient>
	<use xlink:href="#SVGID_1_"  overflow="visible" fill="url(#SVGID_2_)"/>
	<clipPath id="SVGID_3_">
		<use xlink:href="#SVGID_1_"  overflow="visible"/>
	</clipPath>
</g>
<path fill="#FFFFFF" d="M35.074,11.963c0-0.412-0.22-0.794-0.576-0.998L20.576,2.926c-0.356-0.206-0.799-0.206-1.152,0L5.499,10.965
	c-0.354,0.204-0.574,0.586-0.574,0.998v16.075c0,0.41,0.219,0.793,0.574,0.998l13.926,8.038c0.354,0.205,0.795,0.205,1.151,0
	l13.922-8.038c0.356-0.207,0.577-0.588,0.577-0.998L35.074,11.963z M18.373,26.416c-0.503-0.541-1.04-0.949-0.98-0.909
	c-1.22-0.833-2.896-1.916-5.448-2.858c-5.912-2.188-4.407-6.618-1.176-6.618c0.545,0,1.14,0.126,1.756,0.41
	c3.558,1.639,5.826,4.81,6.797,9.113c0,0,0.242,1.237,0.242,2.315C19.563,27.869,18.974,27.063,18.373,26.416z M19.455,19.961
	c-0.717-3.278-0.186-5.873,1.705-7.398c0.369-0.3,0.771-0.431,1.151-0.431c1.561,0,2.787,2.192,0.242,3.893
	C19.389,18.142,19.455,19.961,19.455,19.961z M27.83,21.247c-5.721-0.302-7.281,1.951-7.281,1.951
	c2.09-4.594,5.073-7.241,8.724-7.379c0.042-0.002,0.084-0.002,0.125-0.002c1.725,0,2.739,1.36,2.671,2.721
	C31.997,19.971,30.728,21.402,27.83,21.247z"/>
</svg>
