<?xml version="1.0" encoding="utf-8"?>
<!-- Generator: Adobe Illustrator 16.0.0, SVG Export Plug-In . SVG Version: 6.00 Build 0)  -->
<!DOCTYPE svg PUBLIC "-//W3C//DTD SVG 1.1//EN" "http://www.w3.org/Graphics/SVG/1.1/DTD/svg11.dtd">
<svg version="1.1" id="Layer_1" xmlns="http://www.w3.org/2000/svg" xmlns:xlink="http://www.w3.org/1999/xlink" x="0px" y="0px"
	 width="80px" height="80px" viewBox="0 0 80 80" enable-background="new 0 0 80 80" xml:space="preserve">
<g>
	<path fill="#883D97" d="M75.855,24.479c0-3.21-1.729-6.196-4.506-7.792L44.498,1.184c-2.725-1.582-6.292-1.578-9.012,0.007
		L8.635,16.692c-2.771,1.6-4.492,4.583-4.492,7.788v31.019c0,3.212,1.727,6.198,4.501,7.793l26.861,15.505
		C36.867,79.584,38.421,80,39.998,80c1.573,0,3.124-0.414,4.487-1.199l26.876-15.517c2.774-1.607,4.496-4.59,4.496-7.785
		L75.855,24.479z M69.317,59.75L42.445,75.264c-1.485,0.855-3.414,0.855-4.898-0.003L10.682,59.753
		c-1.516-0.87-2.456-2.5-2.456-4.254V24.48c0-1.75,0.938-3.379,2.45-4.251L37.535,4.723c0.745-0.434,1.596-0.664,2.462-0.664
		c0.864,0,1.711,0.227,2.454,0.659l26.861,15.508c1.518,0.872,2.46,2.501,2.46,4.254l0.002,31.019
		C71.774,57.242,70.833,58.872,69.317,59.75z"/>
	<path fill="#883D97" d="M52.618,29.133c-0.042-0.491-0.455-0.861-0.946-0.861h-4.287c-0.033-3.874-3.192-7.006-7.065-7.006
		s-7.032,3.133-7.067,7.006h-4.286c-0.49,0-0.903,0.378-0.946,0.861l-2.066,23.231c0,0.025,0,0.052,0,0.086
		c0,2.616,2.402,4.75,5.362,4.75h18.016c2.952,0,5.362-2.125,5.362-4.75c0-0.034,0-0.061-0.009-0.086L52.618,29.133z M40.328,23.16
		c2.831,0,5.138,2.29,5.173,5.113H35.146C35.181,25.449,37.487,23.16,40.328,23.16z M49.331,55.299H31.315
		c-1.893,0-3.442-1.256-3.468-2.815l1.979-22.317h3.417v3.064c0,0.525,0.422,0.946,0.946,0.946c0.525,0,0.947-0.421,0.947-0.946
		v-3.064h10.354v3.064c0,0.525,0.422,0.946,0.946,0.946c0.525,0,0.946-0.421,0.946-0.946v-3.064h3.418l1.979,22.317
		C52.773,54.043,51.225,55.299,49.331,55.299z"/>
	<path fill="#883D97" d="M23.751,36.432h-6.49c-0.525,0-0.947,0.422-0.947,0.947s0.422,0.946,0.947,0.946h6.49
		c0.524,0,0.946-0.421,0.946-0.946S24.275,36.432,23.751,36.432z"/>
	<path fill="#883D97" d="M23.751,41.045H13.654c-0.525,0-0.947,0.422-0.947,0.946c0,0.525,0.422,0.948,0.947,0.948h10.097
		c0.524,0,0.946-0.423,0.946-0.948C24.697,41.467,24.275,41.045,23.751,41.045z"/>
	<path fill="#883D97" d="M23.751,45.658h-6.49c-0.525,0-0.947,0.422-0.947,0.947c0,0.524,0.422,0.947,0.947,0.947h6.49
		c0.524,0,0.946-0.423,0.946-0.947C24.697,46.08,24.275,45.658,23.751,45.658z"/>
</g>
</svg>
