<?xml version="1.0" encoding="utf-8"?>
<!-- Generator: Adobe Illustrator 16.0.0, SVG Export Plug-In . SVG Version: 6.00 Build 0)  -->
<!DOCTYPE svg PUBLIC "-//W3C//DTD SVG 1.1//EN" "http://www.w3.org/Graphics/SVG/1.1/DTD/svg11.dtd">
<svg version="1.1" id="Layer_1" xmlns="http://www.w3.org/2000/svg" xmlns:xlink="http://www.w3.org/1999/xlink" x="0px" y="0px"
	 width="80px" height="80px" viewBox="0 0 80 80" enable-background="new 0 0 80 80" xml:space="preserve">
<g>
	<path fill="#E13F40" d="M75.855,24.479c0-3.209-1.729-6.196-4.506-7.792L44.498,1.184c-2.724-1.582-6.292-1.578-9.012,0.007
		l-26.851,15.5c-2.771,1.6-4.493,4.583-4.493,7.788v31.019c0,3.212,1.727,6.199,4.502,7.794l26.861,15.505
		C36.867,79.584,38.421,80,39.998,80c1.573,0,3.124-0.414,4.487-1.199l26.876-15.518c2.773-1.606,4.496-4.59,4.496-7.785
		L75.855,24.479z M69.317,59.75L42.446,75.264c-1.486,0.855-3.415,0.855-4.899-0.003L10.682,59.753
		c-1.515-0.87-2.457-2.501-2.457-4.255V24.479c0-1.75,0.939-3.379,2.451-4.252L37.536,4.722c0.745-0.434,1.596-0.664,2.462-0.664
		c0.864,0,1.711,0.227,2.455,0.659l26.859,15.508c1.519,0.871,2.461,2.5,2.461,4.254l0.002,31.019
		C71.774,57.242,70.832,58.872,69.317,59.75z"/>
	<path fill="#E13F40" d="M51.538,28.384H28.47c-2.06,0-3.733,1.674-3.733,3.733v15.766c0,2.06,1.674,3.732,3.733,3.732h23.061
		c2.06,0,3.732-1.673,3.732-3.732v-15.76C55.271,30.063,53.597,28.384,51.538,28.384z M51.538,49.91H28.47
		c-1.119,0-2.028-0.909-2.028-2.027v-15.76c0-1.118,0.909-2.027,2.028-2.027h23.061c1.118,0,2.027,0.91,2.027,2.027v15.76h0.007
		C53.565,49.001,52.655,49.91,51.538,49.91z"/>
	<path fill="#E13F40" d="M43.989,39.804l7.466-6.695c0.348-0.316,0.379-0.853,0.063-1.207c-0.315-0.348-0.853-0.378-1.206-0.063
		L40.017,41.08l-2.009-1.794c-0.007-0.006-0.013-0.012-0.013-0.019c-0.044-0.044-0.088-0.082-0.139-0.12l-8.173-7.315
		c-0.354-0.315-0.892-0.284-1.207,0.069s-0.284,0.89,0.069,1.207l7.555,6.752l-7.523,7.042c-0.341,0.323-0.36,0.859-0.038,1.207
		c0.171,0.177,0.398,0.271,0.625,0.271c0.208,0,0.417-0.076,0.582-0.228l7.636-7.145l2.071,1.851
		c0.165,0.146,0.367,0.215,0.569,0.215c0.202,0,0.411-0.075,0.568-0.221l2.129-1.907l7.593,7.213
		c0.164,0.158,0.379,0.233,0.588,0.233c0.227,0,0.447-0.088,0.618-0.265c0.322-0.341,0.31-0.884-0.031-1.206L43.989,39.804z"/>
</g>
</svg>
