<?xml version="1.0" encoding="utf-8"?>
<!-- Generator: Adobe Illustrator 16.0.0, SVG Export Plug-In . SVG Version: 6.00 Build 0)  -->
<!DOCTYPE svg PUBLIC "-//W3C//DTD SVG 1.1//EN" "http://www.w3.org/Graphics/SVG/1.1/DTD/svg11.dtd">
<svg version="1.1" id="Layer_1" xmlns="http://www.w3.org/2000/svg" xmlns:xlink="http://www.w3.org/1999/xlink" x="0px" y="0px"
	 width="80px" height="80px" viewBox="0 0 80 80" enable-background="new 0 0 80 80" xml:space="preserve">
<g>
	<path fill="#3A63AF" d="M75.855,24.479c0-3.21-1.729-6.197-4.506-7.792L44.498,1.184c-2.725-1.582-6.292-1.578-9.012,0.007
		L8.635,16.692c-2.771,1.599-4.493,4.583-4.493,7.788v31.019c0,3.211,1.727,6.198,4.502,7.793l26.861,15.505
		C36.867,79.584,38.421,80,39.998,80c1.575,0,3.124-0.414,4.489-1.199l26.875-15.517c2.773-1.607,4.496-4.591,4.496-7.785
		L75.855,24.479z M69.318,59.75L42.445,75.264c-1.485,0.855-3.415,0.855-4.898-0.003L10.682,59.753
		c-1.515-0.87-2.457-2.501-2.457-4.254V24.48c0-1.75,0.939-3.379,2.451-4.251l26.86-15.505c0.744-0.435,1.596-0.664,2.461-0.664
		c0.864,0,1.712,0.227,2.454,0.659l26.861,15.508c1.518,0.871,2.459,2.501,2.459,4.254l0.004,31.02
		C71.775,57.242,70.832,58.872,69.318,59.75z"/>
	<polygon fill="#3A63AF" points="29.53,60.133 29.53,48.516 28.643,48.516 28.643,60.84 35.548,60.84 35.458,60.133 	"/>
	<polygon fill="#3A63AF" points="43.758,49.223 43.631,48.516 37.542,48.516 37.542,60.84 38.43,60.84 38.43,54.949 42.689,54.949 
		42.58,54.242 38.43,54.242 38.43,49.223 	"/>
	<path fill="#3A63AF" d="M52.131,49.413c-0.797-0.599-1.877-0.897-3.244-0.897h-2.953V60.84h0.887v-4.784h1.867
		c1.365,0,2.48-0.32,3.344-0.961c0.865-0.641,1.297-1.595,1.297-2.863C53.328,50.95,52.93,50.011,52.131,49.413z M51.426,54.542
		c-0.666,0.538-1.506,0.807-2.52,0.807H46.82V49.24h2.285c1.039,0,1.852,0.245,2.438,0.734s0.879,1.248,0.879,2.274
		C52.422,53.24,52.09,54.005,51.426,54.542z"/>
	<path fill="#3A63AF" d="M31.034,40.859h19.231c0.492,0,0.895-0.401,0.895-0.894s-0.402-0.894-0.895-0.894H33.361l3.812-5.123
		c0.118-0.159,0.337-0.206,0.508-0.112l1.484,0.813c0.725,0.396,1.633,0.169,2.084-0.524l3.711-5.682
		c0.078-0.12,0.236-0.157,0.359-0.082l0.303,0.185c0.119,0.072,0.27,0.079,0.396,0.015c0.125-0.064,0.209-0.186,0.223-0.328
		l0.34-3.675c0.016-0.157-0.061-0.307-0.193-0.388c-0.133-0.082-0.303-0.079-0.436,0.006l-3.1,1.999
		c-0.119,0.078-0.189,0.208-0.189,0.35c0.002,0.142,0.078,0.271,0.197,0.346l0.244,0.148c0.063,0.036,0.105,0.099,0.121,0.167
		c0.016,0.071,0.002,0.144-0.037,0.204l-3.219,4.934c-0.113,0.173-0.341,0.231-0.523,0.13l-1.443-0.792
		c-0.692-0.38-1.557-0.188-2.029,0.444l-4.046,5.439v-12.64c0-0.493-0.401-0.895-0.895-0.895c-0.493,0-0.895,0.401-0.895,0.895
		v15.058C30.14,40.458,30.541,40.859,31.034,40.859z"/>
</g>
</svg>
