<?xml version="1.0" encoding="utf-8"?>
<!-- Generator: Adobe Illustrator 16.0.0, SVG Export Plug-In . SVG Version: 6.00 Build 0)  -->
<!DOCTYPE svg PUBLIC "-//W3C//DTD SVG 1.1//EN" "http://www.w3.org/Graphics/SVG/1.1/DTD/svg11.dtd">
<svg version="1.1" id="Layer_1" xmlns="http://www.w3.org/2000/svg" xmlns:xlink="http://www.w3.org/1999/xlink" x="0px" y="0px"
	 width="80px" height="50.834px" viewBox="0 0 80 50.834" enable-background="new 0 0 80 50.834" xml:space="preserve">
<g>
	<path fill="#FFFFFF" d="M40.087,2.048L40.087,2.048c-5.337,0-9.679,4.342-9.679,9.679s4.342,9.679,9.679,9.679
		s9.68-4.342,9.68-9.679S45.424,2.048,40.087,2.048 M40.087,22.454c-5.915,0-10.727-4.812-10.727-10.727
		C29.36,5.812,34.172,1,40.087,1c5.915,0,10.728,4.812,10.728,10.727C50.814,17.642,46.002,22.454,40.087,22.454z"/>
	<g>
		<defs>
			<path id="SVGID_1_" d="M40.114,19.4c-0.523,0-1.047-0.136-1.515-0.405l-4.202-2.431c-0.932-0.539-1.512-1.543-1.511-2.621
				l0.004-4.854c0-1.078,0.581-2.082,1.515-2.62l4.192-2.417c0.25-0.144,0.569-0.059,0.713,0.191
				c0.144,0.25,0.058,0.569-0.192,0.713l-4.192,2.416c-0.612,0.353-0.992,1.01-0.993,1.715l-0.003,4.854
				c0,0.705,0.378,1.363,0.989,1.716l4.203,2.43c0.61,0.353,1.369,0.354,1.981,0.001l4.205-2.423
				c0.611-0.352,0.991-1.01,0.991-1.715l0.005-4.854c0-0.706-0.38-1.363-0.99-1.716l-4.193-2.425
				c-0.249-0.145-0.334-0.464-0.189-0.713c0.144-0.25,0.463-0.335,0.713-0.191l4.193,2.425c0.933,0.539,1.512,1.544,1.511,2.622
				l-0.004,4.854c0,1.078-0.581,2.081-1.515,2.619l-4.205,2.425C41.159,19.265,40.637,19.4,40.114,19.4"/>
		</defs>
		<use xlink:href="#SVGID_1_"  overflow="visible" fill="#FFFFFF"/>
		<clipPath id="SVGID_2_">
			<use xlink:href="#SVGID_1_"  overflow="visible"/>
		</clipPath>
		<g clip-path="url(#SVGID_2_)">
			<defs>
				<polygon id="SVGID_3_" points="42.226,4.388 42.804,4.722 42.026,5.479 41.467,5.157 				"/>
			</defs>
			<linearGradient id="SVGID_4_" gradientUnits="userSpaceOnUse" x1="42.3232" y1="5.1099" x2="41.8903" y2="4.7173">
				<stop  offset="0" style="stop-color:#000000;stop-opacity:0"/>
				<stop  offset="1" style="stop-color:#000000;stop-opacity:0.3"/>
			</linearGradient>
			<use xlink:href="#SVGID_3_"  overflow="visible" fill="url(#SVGID_4_)"/>
			<clipPath id="SVGID_5_">
				<use xlink:href="#SVGID_3_"  overflow="visible"/>
			</clipPath>
			<g clip-path="url(#SVGID_5_)">
				<defs>
					<rect id="SVGID_6_" x="41.467" y="4.388" width="1.337" height="1.091"/>
				</defs>
				<linearGradient id="SVGID_7_" gradientUnits="userSpaceOnUse" x1="42.3262" y1="5.1069" x2="41.8936" y2="4.7147">
					<stop  offset="0" style="stop-color:#000000;stop-opacity:0"/>
					<stop  offset="1" style="stop-color:#000000;stop-opacity:0.3"/>
				</linearGradient>
				<use xlink:href="#SVGID_6_"  overflow="visible" fill="url(#SVGID_7_)"/>
				<clipPath id="SVGID_8_">
					<use xlink:href="#SVGID_6_"  overflow="visible"/>
				</clipPath>
			</g>
		</g>
		<linearGradient id="SVGID_9_" gradientUnits="userSpaceOnUse" x1="37.8813" y1="5.1655" x2="38.4667" y2="4.5801">
			<stop  offset="0" style="stop-color:#000000;stop-opacity:0"/>
			<stop  offset="1" style="stop-color:#000000;stop-opacity:0.5"/>
		</linearGradient>
		<polygon clip-path="url(#SVGID_2_)" fill="url(#SVGID_9_)" points="38.016,4.388 37.438,4.722 38.214,5.479 38.775,5.157 		"/>
	</g>
	<g>
		<defs>
			<path id="SVGID_10_" d="M40.178,15.386L40.178,15.386c-0.02,0-0.04,0.001-0.06,0.001s-0.04-0.001-0.06-0.001
				c-1.983-0.033-3.586-1.654-3.586-3.645c0-0.734,0.223-1.44,0.629-2.04c0.103-0.152,0.214-0.297,0.34-0.434
				c0.015-0.016,0.028-0.033,0.041-0.05l0.036-0.037l2.54-2.582l0.06-0.062l0.06,0.062l2.54,2.582l0.036,0.037
				c0.013,0.018,0.026,0.034,0.041,0.05c0.125,0.136,0.237,0.282,0.34,0.434c0.406,0.6,0.629,1.306,0.629,2.04
				C43.764,13.732,42.161,15.354,40.178,15.386 M44.8,11.468c-0.049-0.841-0.321-1.646-0.787-2.339
				c-0.003-0.005-0.007-0.01-0.01-0.015c-0.037-0.053-0.074-0.107-0.113-0.159c-0.086-0.115-0.176-0.227-0.272-0.334
				c-0.018-0.026-0.039-0.052-0.062-0.077l0,0c0,0,0,0,0,0l-0.027-0.027l-2.674-2.727l1.098-1.118l0.002,0.001
				c0.164-0.158,0.417-0.198,0.624-0.078l-0.246-0.144c0,0,0,0,0.001,0l-0.688-0.397c-0.014-0.008-0.028-0.016-0.043-0.022
				c-0.004-0.002-0.009-0.003-0.013-0.005c-0.011-0.004-0.021-0.008-0.032-0.013c-0.005-0.001-0.009-0.003-0.015-0.005
				c-0.011-0.003-0.022-0.006-0.034-0.009c-0.007-0.001-0.014-0.003-0.021-0.005c-0.01-0.002-0.021-0.004-0.031-0.005
				c-0.009-0.001-0.018-0.002-0.026-0.003c-0.005,0-0.01,0-0.014,0c-0.135-0.009-0.268,0.036-0.371,0.124
				c-0.007,0.006-0.018,0.015-0.029,0.025c-0.022,0.02-0.64,0.644-0.838,0.844v0l-0.06,0.062l-0.06-0.062v0
				c-0.198-0.2-0.816-0.824-0.838-0.844c-0.012-0.011-0.022-0.02-0.029-0.025c-0.103-0.088-0.237-0.133-0.371-0.124
				c-0.004,0-0.009,0-0.014,0c-0.009,0.001-0.018,0.002-0.027,0.003c-0.011,0.001-0.021,0.003-0.031,0.005
				c-0.007,0.001-0.014,0.003-0.021,0.005c-0.011,0.003-0.023,0.006-0.034,0.009c-0.005,0.001-0.01,0.003-0.014,0.005
				c-0.011,0.004-0.022,0.008-0.032,0.013c-0.004,0.002-0.009,0.003-0.013,0.005c-0.015,0.007-0.029,0.014-0.043,0.022L37.904,4.45
				c0,0,0.001,0,0.001,0l-0.247,0.144c0.207-0.12,0.459-0.08,0.623,0.078l0.002-0.001l1.098,1.118l-2.674,2.727l-0.027,0.027
				c0,0,0,0,0,0l0,0c-0.023,0.024-0.044,0.05-0.062,0.077c-0.096,0.108-0.187,0.22-0.272,0.334
				c-0.039,0.052-0.076,0.106-0.113,0.159c-0.003,0.005-0.007,0.01-0.011,0.015c-0.466,0.693-0.738,1.498-0.787,2.339
				c-0.005,0.091-0.009,0.182-0.009,0.274c0,2.587,2.104,4.691,4.69,4.691c2.586,0,4.69-2.104,4.69-4.691
				C44.809,11.65,44.805,11.559,44.8,11.468z"/>
		</defs>
		<use xlink:href="#SVGID_10_"  overflow="visible" fill="#FFFFFF"/>
		<clipPath id="SVGID_11_">
			<use xlink:href="#SVGID_10_"  overflow="visible"/>
		</clipPath>
	</g>
	<g>
		<linearGradient id="SVGID_12_" gradientUnits="userSpaceOnUse" x1="40.855" y1="5.7896" x2="40.8571" y2="5.7916">
			<stop  offset="0" style="stop-color:#000000;stop-opacity:0"/>
			<stop  offset="1" style="stop-color:#000000;stop-opacity:0.5"/>
		</linearGradient>
		<polygon fill="url(#SVGID_12_)" points="40.854,5.789 40.856,5.792 40.854,5.789 		"/>
		<linearGradient id="SVGID_13_" gradientUnits="userSpaceOnUse" x1="40.9731" y1="4.9233" x2="40.4406" y2="5.4559">
			<stop  offset="0" style="stop-color:#000000;stop-opacity:0"/>
			<stop  offset="1" style="stop-color:#000000;stop-opacity:0.5"/>
		</linearGradient>
		<polygon fill="url(#SVGID_13_)" points="40.571,4.577 40.118,5.039 40.854,5.789 41.309,5.327 		"/>
	</g>
	<g>
		<linearGradient id="SVGID_14_" gradientUnits="userSpaceOnUse" x1="39.376" y1="5.7832" x2="39.3763" y2="5.7829">
			<stop  offset="0" style="stop-color:#000000;stop-opacity:0"/>
			<stop  offset="1" style="stop-color:#000000;stop-opacity:0.5"/>
		</linearGradient>
		<polygon fill="url(#SVGID_14_)" points="39.368,5.775 39.382,5.79 39.382,5.789 		"/>
		<linearGradient id="SVGID_15_" gradientUnits="userSpaceOnUse" x1="39.2979" y1="6.6211" x2="39.7557" y2="6.1633">
			<stop  offset="0" style="stop-color:#000000;stop-opacity:0"/>
			<stop  offset="1" style="stop-color:#000000;stop-opacity:0.5"/>
		</linearGradient>
		<polygon fill="url(#SVGID_15_)" points="39.382,5.79 38.929,6.251 39.683,6.98 40.118,6.538 		"/>
	</g>
</g>
<g>
	<g>
		<path fill="#FFFFFF" d="M61.428,25.574c-0.879,0-1.593,0.713-1.593,1.592v11.26c0,0.88,0.714,1.591,1.593,1.591
			c0.878,0,1.59-0.711,1.59-1.591v-11.26C63.018,26.287,62.307,25.574,61.428,25.574z"/>
		<path fill="#FFFFFF" d="M44.204,25.574c-0.88,0-1.593,0.711-1.593,1.592v11.26c0,0.88,0.713,1.591,1.593,1.591
			c0.879,0,1.59-0.713,1.59-1.591v-11.26C45.794,26.287,45.084,25.574,44.204,25.574z"/>
		<path fill="#FFFFFF" d="M38.234,35.222c-0.775-0.642-1.46-0.929-2.321-1.366l0.665-0.203c0.165-0.073,0.34-0.143,0.502-0.223
			c0.145-0.069,0.288-0.159,0.428-0.239c0.562-0.324,0.974-0.714,1.37-1.225c0.437-0.562,0.616-1.242,0.654-1.942
			c0.065-1.223-0.263-2.296-1.169-3.14c-0.057-0.047-0.156-0.122-0.23-0.196c-1.105-0.854-2.528-1.109-3.893-1.109h-4.266
			c-0.879,0-1.591,0.712-1.591,1.592v11.255c0,0.88,0.712,1.591,1.591,1.591c0.878,0,1.592-0.711,1.592-1.591v-3.484
			c0-0.277,0.261-0.419,0.554-0.427c0.59-0.016,1.364,0.357,1.836,0.684c1.335,0.919,2.116,2.07,2.87,3.461
			c0.304,0.559,0.61,1.152,0.985,1.667c0.277,0.381,0.624,0.757,1.075,0.931c0.405,0.155,1.06,0.106,1.424-0.138
			c0.296-0.199,0.569-0.493,0.639-0.854c0.09-0.45-0.034-0.815-0.15-1.251C40.304,37.528,39.444,36.218,38.234,35.222z
			 M35.688,31.608c-0.464,0.399-1.11,0.465-1.693,0.364c-0.636-0.111-1.427-0.364-2.001-0.678c-0.141-0.07-0.221-0.132-0.292-0.189
			c-0.148-0.123-0.136-0.284-0.136-0.284v-2.524c0.014-0.279,0.338-0.267,0.551-0.282c0.668-0.052,1.52-0.07,2.179,0.036
			c0.588,0.092,1.222,0.315,1.624,0.776c0.341,0.39,0.513,0.916,0.482,1.433C36.37,30.808,36.099,31.257,35.688,31.608z"/>
		<path fill="#FFFFFF" d="M10.836,26.88c-1.125-1.006-2.653-1.301-4.12-1.301H2.45c-0.861,0-1.568,0.684-1.592,1.536L0.856,38.473
			c0.025,0.86,0.733,1.544,1.593,1.544c0.879,0,1.591-0.713,1.591-1.591v-4.187c0-0.798,0.246-0.571,0.962-0.244
			c0.241,0.109,0.48,0.223,0.724,0.326c0.594,0.251,1.246,0.458,1.896,0.458h0.008l0.008,0.001c0.949,0.051,1.707-0.073,2.513-0.577
			c1.442-0.899,2.035-2.483,2.08-4.125C12.266,28.797,11.789,27.732,10.836,26.88z M8.878,30.26
			c-0.031,0.548-0.304,0.997-0.715,1.349c-0.466,0.399-1.111,0.465-1.694,0.364c-0.635-0.111-1.458-0.383-2.019-0.665
			c-0.188-0.094-0.401-0.203-0.409-0.387c0-0.876,0-1.749,0-2.624c0-0.287,0.426-0.272,0.55-0.282
			c0.464-0.035,0.955-0.046,1.419-0.03c0.252,0.008,0.51,0.026,0.76,0.066c0.589,0.092,1.222,0.314,1.625,0.776
			C8.734,29.217,8.907,29.743,8.878,30.26z"/>
		<path fill="#FFFFFF" d="M25.329,25.583c-0.725,0-1.31,0.585-1.31,1.309v7.397c0,0.909-0.156,1.952-0.872,2.591
			c-0.662,0.591-1.31,0.705-2.17,0.706c-0.896,0.001-1.702-0.239-2.374-0.847c-0.713-0.643-0.995-1.504-0.997-2.45l-0.008-7.119
			c-0.001-0.88-0.71-1.592-1.591-1.592h-0.664c-0.881,0-1.594,0.711-1.594,1.592v7.119c0,1.659,0.469,3.162,1.705,4.305
			c1.239,1.147,3.119,1.578,4.764,1.603c0.176,0.002,0.352-0.003,0.528,0c1.113,0.011,1.941-0.128,2.941-0.622
			c0.938-0.464,1.745-1.158,2.269-2.07c0.554-0.963,0.684-2.124,0.684-3.215v-7.397C26.639,26.169,26.052,25.583,25.329,25.583z"/>
		<path fill="#FFFFFF" d="M75.832,36.188c-0.258,0-0.512,0.064-0.736,0.188c-0.693,0.384-1.467,0.586-2.259,0.586
			c-2.579,0-4.67-2.091-4.67-4.669c0-2.58,2.089-4.672,4.67-4.672c0.856,0,1.692,0.234,2.419,0.677
			c0.163,0.095,0.35,0.146,0.539,0.146c0.607,0,1.097-0.492,1.097-1.099c0-0.409-0.229-0.785-0.592-0.974l-0.006-0.003l-0.007-0.003
			c-1.128-0.651-2.396-0.991-3.7-0.991c-4.093,0-7.412,3.316-7.412,7.41c0,4.093,3.319,7.41,7.412,7.41
			c1.441,0,2.836-0.414,4.043-1.201l0.006-0.003c0.444-0.277,0.715-0.763,0.715-1.288C77.351,36.866,76.671,36.188,75.832,36.188z"
			/>
		<path fill="#FFFFFF" d="M56.959,25.582h-6.996c-0.703,0-1.274,0.572-1.274,1.273v11.57c0,0.88,0.713,1.591,1.592,1.591
			s1.591-0.711,1.591-1.591v-5.028h3.229c0.703,0,1.273-0.569,1.273-1.272c0-0.704-0.57-1.274-1.273-1.274h-3.229v-2.722h5.088
			c0.705,0,1.274-0.568,1.274-1.273C58.233,26.152,57.663,25.582,56.959,25.582z"/>
		<path fill="#FFFFFF" d="M79.243,27.233c-0.05-0.12-0.12-0.224-0.211-0.314c-0.089-0.091-0.194-0.161-0.313-0.213
			c-0.119-0.05-0.246-0.076-0.379-0.076c-0.135,0-0.262,0.026-0.381,0.076c-0.118,0.052-0.224,0.122-0.313,0.211
			c-0.089,0.091-0.159,0.196-0.211,0.316c-0.05,0.119-0.074,0.245-0.074,0.381c0,0.176,0.044,0.338,0.131,0.486
			c0.087,0.15,0.206,0.269,0.356,0.355c0.15,0.089,0.314,0.132,0.492,0.132c0.176,0,0.34-0.043,0.49-0.13
			c0.149-0.089,0.268-0.207,0.356-0.357c0.087-0.148,0.13-0.311,0.13-0.486C79.317,27.478,79.293,27.352,79.243,27.233z
			 M78.997,27.999c-0.067,0.117-0.161,0.212-0.277,0.281c-0.118,0.068-0.244,0.104-0.378,0.104c-0.137,0-0.262-0.035-0.378-0.104
			c-0.116-0.069-0.208-0.164-0.277-0.281c-0.07-0.117-0.104-0.246-0.104-0.385c0-0.141,0.034-0.27,0.104-0.39
			c0.069-0.119,0.161-0.214,0.279-0.284c0.115-0.069,0.24-0.104,0.376-0.104c0.134,0,0.26,0.035,0.378,0.104
			c0.116,0.07,0.21,0.165,0.277,0.284c0.07,0.12,0.105,0.249,0.105,0.39C79.103,27.753,79.067,27.882,78.997,27.999z"/>
		<path fill="#FFFFFF" d="M78.765,27.388c0-0.08-0.015-0.145-0.045-0.191c-0.03-0.049-0.075-0.082-0.135-0.102
			c-0.06-0.022-0.136-0.032-0.228-0.032h-0.36c-0.037,0-0.056,0.019-0.056,0.054v0.98c0,0.025,0.009,0.045,0.025,0.059
			c0.016,0.016,0.036,0.023,0.058,0.024c0.061-0.003,0.091-0.031,0.091-0.083v-0.39h0.174l0.26,0.411
			c0.022,0.04,0.058,0.059,0.105,0.062c0.031-0.002,0.057-0.006,0.073-0.01c0.018-0.005,0.027-0.018,0.027-0.036
			c0-0.02-0.008-0.041-0.022-0.064l-0.242-0.372C78.673,27.671,78.765,27.567,78.765,27.388z M78.553,27.486
			c-0.023,0.023-0.054,0.04-0.092,0.047c-0.037,0.007-0.083,0.01-0.139,0.01h-0.207v-0.315h0.221c0.076,0,0.137,0.01,0.185,0.028
			c0.046,0.019,0.068,0.059,0.068,0.12C78.589,27.425,78.577,27.462,78.553,27.486z"/>
	</g>
	<path fill-rule="evenodd" clip-rule="evenodd" fill="#FFFFFF" d="M71.833,44.349L71.833,44.349c0-0.095,0.027-0.167,0.082-0.22
		c0.055-0.051,0.12-0.077,0.197-0.077c0.079,0,0.147,0.025,0.203,0.074c0.055,0.051,0.083,0.119,0.083,0.211v4.449
		c0,0.097-0.028,0.172-0.084,0.226c-0.057,0.053-0.125,0.079-0.202,0.079c-0.074,0-0.141-0.026-0.195-0.08
		c-0.056-0.056-0.084-0.13-0.084-0.225V44.349z M68.811,47.113L68.811,47.113h1.9c-0.007-0.317-0.09-0.572-0.252-0.766
		c-0.164-0.192-0.387-0.292-0.669-0.298c-0.288,0-0.521,0.093-0.695,0.28C68.918,46.516,68.825,46.777,68.811,47.113z
		 M68.241,47.295L68.241,47.295c0.011-0.294,0.079-0.576,0.201-0.841c0.123-0.265,0.297-0.479,0.522-0.645
		c0.229-0.165,0.494-0.248,0.8-0.253c0.297,0,0.563,0.08,0.794,0.241c0.229,0.162,0.409,0.373,0.536,0.64
		c0.125,0.266,0.188,0.543,0.188,0.832c0,0.186-0.105,0.277-0.316,0.277h-2.155c0.005,0.23,0.054,0.424,0.147,0.581
		c0.095,0.156,0.221,0.274,0.379,0.354c0.158,0.078,0.332,0.117,0.525,0.117c0.336,0,0.645-0.119,0.926-0.356
		c0.099-0.069,0.171-0.105,0.216-0.105c0.063,0,0.111,0.023,0.146,0.071c0.036,0.047,0.056,0.104,0.056,0.17
		c0,0.072-0.029,0.141-0.086,0.207c-0.127,0.136-0.306,0.254-0.538,0.355c-0.233,0.101-0.483,0.15-0.752,0.15
		c-0.28,0-0.524-0.053-0.732-0.159c-0.208-0.105-0.374-0.246-0.502-0.421c-0.126-0.174-0.218-0.364-0.276-0.567
		s-0.089-0.408-0.092-0.617c0.005-0.01,0.009-0.018,0.011-0.022C68.239,47.3,68.241,47.296,68.241,47.295z M65.38,45.985
		L65.38,45.985c-0.019-0.054-0.035-0.121-0.051-0.2c0-0.085,0.024-0.152,0.077-0.204c0.05-0.051,0.113-0.076,0.188-0.076
		c0.152,0,0.255,0.08,0.305,0.24l0.796,2.431l0.812-2.431c0.038-0.135,0.128-0.202,0.266-0.202c0.073,0,0.139,0.024,0.196,0.072
		c0.056,0.048,0.084,0.111,0.084,0.194c0,0.024-0.009,0.07-0.027,0.136l-1.023,2.904c-0.034,0.084-0.074,0.145-0.118,0.183
		c-0.044,0.039-0.106,0.059-0.188,0.059c-0.135,0-0.233-0.075-0.291-0.228L65.38,45.985z M63.032,44.59L63.032,44.59l0.767-0.313
		c0.029-0.016,0.078-0.024,0.148-0.024c0.068,0,0.13,0.024,0.184,0.076c0.056,0.05,0.083,0.108,0.083,0.176
		c0,0.105-0.071,0.186-0.214,0.241l-0.76,0.318c-0.033,0.013-0.098,0.023-0.193,0.03c-0.074,0-0.136-0.021-0.185-0.062
		c-0.048-0.043-0.075-0.099-0.082-0.164C62.795,44.744,62.88,44.651,63.032,44.59z M64.402,46.022L64.402,46.022v-0.188
		c0-0.082,0.025-0.15,0.077-0.2c0.053-0.053,0.115-0.077,0.188-0.077c0.074,0,0.138,0.024,0.189,0.078
		c0.05,0.051,0.076,0.123,0.076,0.215v2.948c0,0.098-0.024,0.17-0.075,0.22c-0.052,0.049-0.114,0.073-0.19,0.073
		c-0.072,0-0.135-0.023-0.187-0.07c-0.054-0.048-0.079-0.112-0.079-0.194v-0.253h-0.014c-0.243,0.335-0.545,0.509-0.902,0.518
		c-0.29,0-0.555-0.072-0.793-0.216s-0.425-0.349-0.561-0.616c-0.135-0.266-0.202-0.572-0.202-0.919c0-0.389,0.075-0.718,0.223-0.986
		c0.149-0.27,0.339-0.469,0.567-0.6c0.231-0.131,0.462-0.197,0.694-0.197c0.209,0,0.386,0.036,0.534,0.109
		c0.148,0.072,0.295,0.191,0.439,0.356H64.402z M62.501,47.326L62.501,47.326c0,0.223,0.034,0.431,0.104,0.624
		c0.067,0.192,0.171,0.351,0.307,0.469c0.14,0.121,0.308,0.18,0.504,0.18c0.347,0,0.597-0.125,0.748-0.372
		c0.15-0.249,0.226-0.548,0.226-0.9c0-0.259-0.039-0.484-0.116-0.679c-0.079-0.193-0.188-0.342-0.331-0.445
		c-0.143-0.103-0.303-0.152-0.486-0.152h-0.013c-0.31,0.012-0.541,0.134-0.696,0.368C62.59,46.651,62.509,46.954,62.501,47.326z
		 M60.726,46.022L60.726,46.022v-1.697c0-0.09,0.027-0.16,0.083-0.21c0.055-0.052,0.121-0.076,0.196-0.076
		c0.083,0,0.152,0.024,0.208,0.076c0.055,0.05,0.084,0.124,0.084,0.221v4.462c0,0.092-0.029,0.163-0.086,0.216
		c-0.058,0.052-0.127,0.077-0.206,0.077c-0.072,0-0.136-0.025-0.193-0.077c-0.059-0.051-0.086-0.119-0.086-0.202v-0.187h-0.014
		c-0.06,0.124-0.16,0.232-0.299,0.321c-0.141,0.088-0.326,0.139-0.563,0.145c-0.304,0-0.57-0.074-0.799-0.223
		c-0.231-0.148-0.408-0.356-0.535-0.622c-0.125-0.267-0.191-0.567-0.195-0.906c0-0.241,0.035-0.472,0.105-0.689
		c0.07-0.219,0.17-0.409,0.299-0.571c0.129-0.164,0.282-0.291,0.463-0.385c0.181-0.092,0.377-0.138,0.592-0.138
		c0.388,0,0.698,0.156,0.933,0.466H60.726z M58.89,47.313L58.89,47.313c0,0.352,0.076,0.65,0.227,0.897
		c0.151,0.248,0.375,0.376,0.676,0.389c0.237,0,0.431-0.062,0.579-0.187c0.147-0.124,0.253-0.282,0.317-0.474
		c0.062-0.189,0.096-0.396,0.102-0.612c0-0.25-0.04-0.472-0.12-0.668c-0.081-0.194-0.194-0.346-0.337-0.45
		c-0.145-0.105-0.307-0.158-0.489-0.158c-0.215,0-0.393,0.063-0.533,0.188c-0.144,0.127-0.248,0.286-0.314,0.478
		C58.931,46.905,58.896,47.105,58.89,47.313z M55.007,45.85L55.007,45.85c0-0.09,0.026-0.161,0.082-0.214
		c0.053-0.055,0.119-0.079,0.196-0.079c0.078,0,0.146,0.024,0.202,0.078c0.056,0.051,0.083,0.123,0.083,0.215v1.887
		c0,0.264,0.066,0.473,0.199,0.628c0.132,0.157,0.329,0.234,0.592,0.234c0.541,0,0.812-0.287,0.812-0.862V45.85
		c0-0.09,0.026-0.161,0.081-0.214c0.055-0.055,0.12-0.079,0.197-0.079c0.079,0,0.146,0.024,0.202,0.078
		c0.055,0.051,0.084,0.123,0.084,0.215v1.899c0,0.237-0.048,0.458-0.144,0.662c-0.094,0.203-0.246,0.367-0.454,0.492
		s-0.473,0.188-0.791,0.188c-0.301,0-0.551-0.06-0.752-0.183c-0.201-0.121-0.352-0.284-0.446-0.487
		c-0.097-0.204-0.144-0.428-0.144-0.672V45.85z M53.71,46.022L53.71,46.022v-0.188c0-0.082,0.026-0.15,0.078-0.2
		c0.053-0.053,0.114-0.077,0.188-0.077c0.075,0,0.139,0.024,0.189,0.078c0.051,0.051,0.076,0.123,0.076,0.215v2.948
		c0,0.098-0.024,0.17-0.074,0.22c-0.051,0.049-0.115,0.073-0.191,0.073c-0.071,0-0.134-0.023-0.187-0.07
		c-0.053-0.048-0.079-0.112-0.079-0.194v-0.253h-0.014c-0.243,0.335-0.544,0.509-0.901,0.518c-0.29,0-0.555-0.072-0.793-0.216
		c-0.239-0.144-0.426-0.349-0.561-0.616c-0.136-0.266-0.202-0.572-0.202-0.919c0-0.389,0.073-0.718,0.222-0.986
		c0.149-0.27,0.339-0.469,0.569-0.6c0.229-0.131,0.461-0.197,0.692-0.197c0.209,0,0.387,0.036,0.535,0.109
		c0.149,0.072,0.295,0.191,0.438,0.356H53.71z M51.81,47.326L51.81,47.326c0,0.223,0.035,0.431,0.103,0.624
		c0.068,0.192,0.171,0.351,0.309,0.469c0.138,0.121,0.305,0.18,0.502,0.18c0.348,0,0.597-0.125,0.748-0.372
		c0.15-0.249,0.226-0.548,0.226-0.9c0-0.259-0.039-0.484-0.117-0.679c-0.078-0.193-0.187-0.342-0.33-0.445
		c-0.141-0.103-0.304-0.152-0.486-0.152H52.75c-0.308,0.012-0.541,0.134-0.696,0.368C51.897,46.651,51.815,46.954,51.81,47.326z
		 M48.443,48.709L48.443,48.709c-0.088-0.062-0.142-0.154-0.156-0.279c0-0.068,0.021-0.127,0.07-0.178
		c0.046-0.049,0.106-0.076,0.177-0.076c0.055,0,0.11,0.018,0.165,0.048c0.055,0.029,0.123,0.074,0.203,0.134
		c0.082,0.059,0.14,0.095,0.176,0.111c0.13,0.073,0.288,0.116,0.479,0.13c0.185,0,0.351-0.038,0.492-0.113
		c0.144-0.076,0.215-0.197,0.215-0.36c0-0.158-0.089-0.286-0.264-0.389c-0.093-0.06-0.26-0.136-0.5-0.231
		c-0.24-0.095-0.427-0.177-0.556-0.243c-0.133-0.067-0.249-0.163-0.351-0.286c-0.101-0.123-0.151-0.274-0.151-0.458
		c0-0.172,0.046-0.328,0.141-0.472c0.094-0.145,0.227-0.261,0.399-0.346c0.17-0.087,0.367-0.134,0.587-0.144
		c0.212,0,0.417,0.036,0.614,0.107c0.199,0.071,0.346,0.149,0.438,0.235c0.09,0.093,0.136,0.182,0.136,0.265
		c0,0.064-0.024,0.12-0.074,0.171c-0.05,0.05-0.109,0.077-0.18,0.083c-0.073-0.019-0.181-0.068-0.32-0.147
		c-0.14-0.081-0.243-0.137-0.307-0.168c-0.066-0.03-0.148-0.048-0.249-0.053c-0.203,0-0.357,0.042-0.461,0.125
		c-0.104,0.084-0.16,0.186-0.168,0.31c0.02,0.104,0.069,0.194,0.15,0.269c0.081,0.075,0.175,0.138,0.281,0.186
		c0.107,0.048,0.234,0.099,0.385,0.15c0.151,0.05,0.255,0.089,0.312,0.114c0.256,0.105,0.44,0.228,0.553,0.366
		c0.111,0.139,0.168,0.309,0.168,0.511c-0.005,0.176-0.056,0.341-0.148,0.492c-0.096,0.151-0.238,0.274-0.429,0.37
		c-0.189,0.095-0.423,0.145-0.701,0.148C49.118,49.091,48.743,48.964,48.443,48.709z M45.667,46.022L45.667,46.022v-0.188
		c0-0.082,0.027-0.15,0.078-0.2c0.053-0.053,0.115-0.077,0.189-0.077s0.137,0.024,0.188,0.078c0.051,0.051,0.076,0.123,0.076,0.215
		v2.948c0,0.098-0.025,0.17-0.075,0.22c-0.052,0.049-0.115,0.073-0.189,0.073c-0.073,0-0.135-0.023-0.188-0.07
		c-0.053-0.048-0.08-0.112-0.08-0.194v-0.253h-0.013c-0.244,0.335-0.545,0.509-0.902,0.518c-0.289,0-0.555-0.072-0.793-0.216
		s-0.425-0.349-0.561-0.616c-0.135-0.266-0.202-0.572-0.202-0.919c0-0.389,0.075-0.718,0.224-0.986
		c0.148-0.27,0.337-0.469,0.566-0.6s0.463-0.197,0.694-0.197c0.208,0,0.386,0.036,0.534,0.109c0.148,0.072,0.295,0.191,0.439,0.356
		H45.667z M43.767,47.326L43.767,47.326c0,0.223,0.035,0.431,0.103,0.624c0.068,0.192,0.172,0.351,0.309,0.469
		c0.139,0.121,0.307,0.18,0.503,0.18c0.347,0,0.597-0.125,0.748-0.372c0.15-0.249,0.226-0.548,0.226-0.9
		c0-0.259-0.038-0.484-0.116-0.679c-0.079-0.193-0.188-0.342-0.331-0.445c-0.142-0.103-0.303-0.152-0.486-0.152h-0.012
		c-0.31,0.012-0.542,0.134-0.697,0.368C43.855,46.651,43.773,46.954,43.767,47.326z M40.271,45.985L40.271,45.985
		c-0.018-0.054-0.035-0.121-0.051-0.2c0-0.085,0.026-0.152,0.077-0.204c0.05-0.051,0.114-0.076,0.188-0.076
		c0.152,0,0.254,0.08,0.306,0.24l0.797,2.431l0.81-2.431c0.038-0.135,0.128-0.202,0.267-0.202c0.073,0,0.138,0.024,0.195,0.072
		c0.056,0.048,0.084,0.111,0.084,0.194c0,0.024-0.009,0.07-0.027,0.136l-1.023,2.904c-0.034,0.084-0.074,0.145-0.118,0.183
		c-0.044,0.039-0.106,0.059-0.187,0.059c-0.138,0-0.234-0.075-0.291-0.228L40.271,45.985z M39.552,45.103L39.552,45.103
		c-0.097,0-0.18-0.035-0.25-0.107c-0.07-0.072-0.106-0.156-0.106-0.251c0-0.094,0.035-0.176,0.105-0.247
		c0.069-0.073,0.154-0.108,0.252-0.108c0.096,0,0.178,0.035,0.247,0.106c0.07,0.07,0.104,0.153,0.104,0.249
		c0,0.095-0.035,0.18-0.105,0.251C39.729,45.067,39.646,45.103,39.552,45.103z M39.274,45.862L39.274,45.862
		c0-0.096,0.026-0.171,0.082-0.225c0.054-0.055,0.121-0.081,0.196-0.081c0.079,0,0.147,0.024,0.203,0.078
		c0.055,0.051,0.083,0.123,0.083,0.215v2.948c0,0.092-0.028,0.163-0.085,0.216c-0.057,0.052-0.123,0.077-0.201,0.077
		c-0.075,0-0.14-0.025-0.195-0.078c-0.056-0.054-0.083-0.125-0.083-0.215V45.862z M36.192,45.985L36.192,45.985
		c-0.018-0.054-0.035-0.121-0.052-0.2c0-0.085,0.026-0.152,0.078-0.204c0.05-0.051,0.114-0.076,0.188-0.076
		c0.153,0,0.254,0.08,0.306,0.24l0.796,2.431l0.811-2.431c0.039-0.135,0.127-0.202,0.266-0.202c0.073,0,0.137,0.024,0.195,0.072
		c0.057,0.048,0.085,0.111,0.085,0.194c0,0.024-0.009,0.07-0.027,0.136l-1.024,2.904c-0.034,0.084-0.074,0.145-0.118,0.183
		c-0.045,0.039-0.107,0.059-0.188,0.059c-0.137,0-0.234-0.075-0.291-0.228L36.192,45.985z M33.203,49.435L33.203,49.435l0.422-0.824
		c0.066-0.12,0.156-0.181,0.265-0.181c0.072,0,0.132,0.022,0.181,0.067c0.048,0.044,0.072,0.106,0.072,0.187
		c0,0.065-0.012,0.129-0.039,0.193l-0.414,0.81c-0.067,0.127-0.164,0.189-0.292,0.189c-0.067,0-0.126-0.024-0.174-0.069
		c-0.049-0.045-0.075-0.107-0.078-0.185C33.152,49.544,33.171,49.48,33.203,49.435z M28.001,45.836L28.001,45.836
		c0-0.078,0.028-0.143,0.084-0.191c0.058-0.05,0.126-0.075,0.208-0.075c0.08,0,0.145,0.025,0.195,0.074
		c0.052,0.048,0.077,0.121,0.077,0.218v0.109h0.013c0.217-0.276,0.513-0.414,0.888-0.414c0.396,0.012,0.705,0.206,0.927,0.583
		c0.157-0.217,0.322-0.367,0.5-0.454c0.175-0.086,0.373-0.129,0.589-0.129c0.214,0.006,0.41,0.059,0.589,0.159
		c0.179,0.101,0.323,0.246,0.428,0.434c0.105,0.189,0.159,0.408,0.159,0.658v2.004c0,0.086-0.028,0.153-0.086,0.204
		s-0.126,0.075-0.208,0.075c-0.071,0-0.135-0.025-0.193-0.077c-0.057-0.053-0.085-0.119-0.085-0.202v-1.966
		c0-0.168-0.031-0.314-0.094-0.434c-0.063-0.121-0.15-0.212-0.259-0.273c-0.109-0.059-0.231-0.089-0.366-0.089
		c-0.219,0-0.399,0.064-0.542,0.191c-0.143,0.126-0.216,0.328-0.216,0.604v1.967c0,0.083-0.029,0.147-0.086,0.195
		c-0.057,0.047-0.126,0.07-0.206,0.07c-0.074,0-0.139-0.023-0.195-0.072c-0.055-0.048-0.084-0.111-0.084-0.193v-1.939
		c0-0.28-0.07-0.488-0.209-0.623c-0.139-0.134-0.314-0.2-0.523-0.2c-0.139,0.005-0.263,0.033-0.372,0.085
		c-0.11,0.052-0.198,0.134-0.266,0.246c-0.068,0.111-0.102,0.253-0.102,0.427v2.004c0,0.086-0.028,0.153-0.084,0.204
		s-0.124,0.075-0.2,0.075c-0.074,0-0.14-0.025-0.195-0.077c-0.057-0.053-0.084-0.119-0.084-0.202V45.836z M24.979,47.113
		L24.979,47.113h1.901c-0.008-0.317-0.091-0.572-0.254-0.766c-0.163-0.192-0.386-0.292-0.669-0.298c-0.287,0-0.52,0.093-0.695,0.28
		C25.086,46.516,24.993,46.777,24.979,47.113z M24.409,47.295L24.409,47.295c0.012-0.294,0.079-0.576,0.202-0.841
		c0.122-0.265,0.297-0.479,0.523-0.645c0.227-0.165,0.493-0.248,0.8-0.253c0.296,0,0.561,0.08,0.792,0.241
		c0.231,0.162,0.409,0.374,0.536,0.64c0.126,0.266,0.188,0.543,0.188,0.832c0,0.186-0.104,0.277-0.315,0.277h-2.155
		c0.004,0.23,0.054,0.424,0.147,0.581c0.094,0.156,0.221,0.274,0.378,0.354c0.158,0.078,0.333,0.117,0.525,0.117
		c0.336,0,0.646-0.119,0.928-0.356c0.097-0.069,0.168-0.105,0.214-0.105c0.064,0,0.112,0.023,0.148,0.071
		c0.036,0.047,0.053,0.104,0.053,0.17c0,0.072-0.027,0.141-0.084,0.207c-0.126,0.136-0.306,0.254-0.539,0.355
		c-0.233,0.101-0.483,0.15-0.752,0.15c-0.281,0-0.524-0.053-0.732-0.159c-0.208-0.105-0.374-0.246-0.502-0.421
		c-0.127-0.174-0.218-0.364-0.276-0.567s-0.089-0.408-0.092-0.617c0.006-0.01,0.009-0.018,0.01-0.022
		C24.407,47.3,24.409,47.296,24.409,47.295z M21.607,46.022L21.607,46.022h0.014c0.243-0.31,0.551-0.466,0.926-0.466
		c0.287,0,0.544,0.08,0.767,0.239c0.222,0.158,0.395,0.375,0.516,0.649c0.123,0.271,0.183,0.57,0.183,0.895
		c-0.001,0.254-0.039,0.487-0.109,0.701c-0.069,0.212-0.172,0.398-0.308,0.557c-0.134,0.159-0.295,0.279-0.484,0.365
		c-0.188,0.086-0.397,0.128-0.628,0.128c-0.422-0.011-0.708-0.166-0.862-0.466h-0.014v0.187c0,0.086-0.029,0.153-0.085,0.204
		c-0.057,0.051-0.125,0.075-0.207,0.075c-0.072,0-0.135-0.025-0.19-0.078c-0.055-0.054-0.082-0.125-0.082-0.215v-4.462
		c0-0.095,0.027-0.167,0.081-0.22c0.052-0.052,0.117-0.077,0.191-0.077c0.083,0,0.151,0.024,0.208,0.074
		c0.055,0.049,0.084,0.12,0.084,0.212V46.022z M23.449,47.313L23.449,47.313c-0.004-0.234-0.042-0.447-0.112-0.633
		c-0.072-0.187-0.174-0.334-0.309-0.445c-0.136-0.11-0.3-0.172-0.493-0.185c-0.185,0-0.353,0.048-0.502,0.146
		c-0.153,0.099-0.271,0.241-0.359,0.433c-0.087,0.189-0.132,0.413-0.137,0.673c0.007,0.005,0.011,0.009,0.012,0.015
		c0.001,0.003,0.002,0.008,0.002,0.01c0.005,0.217,0.04,0.423,0.103,0.613c0.064,0.192,0.168,0.35,0.315,0.475
		c0.148,0.123,0.342,0.185,0.58,0.185c0.202-0.009,0.37-0.071,0.507-0.194c0.135-0.121,0.235-0.278,0.299-0.471
		S23.449,47.535,23.449,47.313z M18.165,46.022L18.165,46.022v-0.188c0-0.082,0.026-0.15,0.077-0.2
		c0.054-0.053,0.116-0.077,0.189-0.077c0.074,0,0.138,0.024,0.189,0.078c0.051,0.051,0.076,0.123,0.076,0.215v2.948
		c0,0.098-0.024,0.17-0.075,0.22c-0.051,0.049-0.115,0.073-0.19,0.073c-0.073,0-0.134-0.023-0.188-0.07
		c-0.052-0.048-0.079-0.112-0.079-0.194v-0.253h-0.013c-0.244,0.335-0.545,0.509-0.904,0.518c-0.289,0-0.554-0.072-0.792-0.216
		c-0.238-0.144-0.426-0.349-0.561-0.616c-0.136-0.266-0.203-0.572-0.203-0.919c0-0.389,0.075-0.718,0.223-0.986
		c0.149-0.27,0.339-0.469,0.568-0.6c0.229-0.131,0.46-0.197,0.693-0.197c0.209,0,0.386,0.036,0.535,0.109
		c0.149,0.072,0.295,0.191,0.44,0.356H18.165z M16.265,47.326L16.265,47.326c0,0.223,0.035,0.431,0.102,0.624
		c0.068,0.192,0.171,0.351,0.308,0.469c0.139,0.121,0.305,0.18,0.502,0.18c0.348,0,0.597-0.125,0.748-0.372
		c0.151-0.249,0.227-0.548,0.227-0.9c0-0.259-0.04-0.484-0.117-0.679c-0.08-0.193-0.189-0.342-0.331-0.445
		c-0.142-0.103-0.305-0.152-0.487-0.152h-0.013c-0.308,0.012-0.54,0.134-0.696,0.368C16.352,46.651,16.27,46.954,16.265,47.326z
		 M12.768,45.985L12.768,45.985c-0.018-0.054-0.036-0.121-0.052-0.2c0-0.085,0.025-0.152,0.076-0.204
		c0.051-0.051,0.116-0.076,0.189-0.076c0.152,0,0.254,0.08,0.306,0.24l0.796,2.431l0.811-2.431c0.04-0.135,0.127-0.202,0.266-0.202
		c0.073,0,0.139,0.024,0.196,0.072c0.056,0.048,0.085,0.111,0.085,0.194c0,0.024-0.009,0.07-0.027,0.136l-1.024,2.904
		c-0.034,0.084-0.074,0.145-0.118,0.183c-0.044,0.039-0.107,0.059-0.188,0.059c-0.137,0-0.234-0.075-0.291-0.228L12.768,45.985z
		 M12.049,45.103L12.049,45.103c-0.096,0-0.178-0.035-0.25-0.107c-0.071-0.072-0.106-0.156-0.106-0.251
		c0-0.094,0.034-0.176,0.105-0.247c0.068-0.073,0.153-0.108,0.251-0.108c0.096,0,0.178,0.035,0.247,0.106
		c0.069,0.07,0.104,0.153,0.104,0.249s-0.035,0.18-0.105,0.251C12.226,45.067,12.144,45.103,12.049,45.103z M11.771,45.862
		L11.771,45.862c0-0.096,0.027-0.171,0.082-0.225c0.054-0.055,0.12-0.081,0.196-0.081c0.08,0,0.147,0.024,0.203,0.078
		c0.055,0.051,0.083,0.123,0.083,0.215v2.948c0,0.092-0.028,0.163-0.085,0.216c-0.055,0.052-0.123,0.077-0.201,0.077
		c-0.074,0-0.14-0.025-0.195-0.078c-0.055-0.054-0.083-0.125-0.083-0.215V45.862z M7.828,44.822
		c-0.017-0.051-0.034-0.12-0.051-0.207c0-0.085,0.024-0.154,0.074-0.208c0.049-0.056,0.109-0.082,0.179-0.082
		c0.068,0,0.132,0.024,0.193,0.077c0.063,0.051,0.107,0.123,0.139,0.213l1.213,3.51h0.012l1.219-3.522
		c0.054-0.15,0.155-0.227,0.305-0.227c0.073,0,0.133,0.024,0.18,0.07c0.049,0.048,0.072,0.117,0.072,0.208
		c0,0.034-0.008,0.086-0.024,0.155l-1.435,4.002c-0.047,0.11-0.089,0.186-0.128,0.223c-0.038,0.039-0.101,0.057-0.188,0.057
		c-0.087,0-0.153-0.018-0.198-0.055c-0.046-0.037-0.087-0.104-0.12-0.197L7.828,44.822z"/>
</g>
</svg>
