<?xml version="1.0" encoding="utf-8"?>
<!-- Generator: Adobe Illustrator 16.0.0, SVG Export Plug-In . SVG Version: 6.00 Build 0)  -->
<!DOCTYPE svg PUBLIC "-//W3C//DTD SVG 1.1//EN" "http://www.w3.org/Graphics/SVG/1.1/DTD/svg11.dtd">
<svg version="1.1" id="Layer_1" xmlns="http://www.w3.org/2000/svg" xmlns:xlink="http://www.w3.org/1999/xlink" x="0px" y="0px"
	 width="80px" height="80px" viewBox="0 0 80 80" enable-background="new 0 0 80 80" xml:space="preserve">
<g>
	<path fill="#23AA6A" d="M75.855,24.479c0-3.21-1.729-6.196-4.506-7.792L44.498,1.184c-2.725-1.582-6.292-1.578-9.012,0.007
		L8.635,16.692c-2.771,1.6-4.492,4.583-4.492,7.788v31.019c0,3.212,1.727,6.198,4.501,7.793l26.861,15.505
		C36.867,79.584,38.421,80,39.998,80c1.573,0,3.124-0.414,4.487-1.199l26.876-15.517c2.774-1.607,4.496-4.59,4.496-7.785
		L75.855,24.479z M69.317,59.75L42.445,75.264c-1.485,0.855-3.414,0.855-4.898-0.003L10.682,59.753
		c-1.516-0.87-2.456-2.5-2.456-4.254V24.48c0-1.75,0.938-3.379,2.45-4.251L37.535,4.723c0.745-0.434,1.596-0.664,2.462-0.664
		c0.864,0,1.711,0.227,2.454,0.659l26.861,15.508c1.518,0.872,2.46,2.501,2.46,4.254l0.002,31.019
		C71.774,57.242,70.833,58.872,69.317,59.75z"/>
	<path fill="#23AA6A" d="M57.134,22.851H22.867c-1.9,0-3.447,1.546-3.447,3.446v18.831c0,1.901,1.547,3.447,3.447,3.447h11.656
		l-1.171,3.511c-1.107,0.288-1.928,1.295-1.928,2.49v0.858h-2.572c-0.474,0-0.856,0.383-0.856,0.857
		c0,0.474,0.383,0.858,0.856,0.858h3.914h14.467h3.914c0.473,0,0.857-0.385,0.857-0.858c0-0.475-0.385-0.857-0.857-0.857h-2.572
		v-0.858c0-1.194-0.82-2.202-1.928-2.49l-1.17-3.511h11.656c1.899,0,3.444-1.546,3.444-3.447V26.297
		C60.579,24.396,59.033,22.851,57.134,22.851z M46.002,53.719c0.473,0,0.857,0.385,0.857,0.857v0.858H33.14v-0.858
		c0-0.473,0.385-0.857,0.858-0.857H46.002z M35.187,52.005l1.145-3.43h7.338l1.144,3.43H35.187z M58.864,45.128
		c0,0.955-0.777,1.731-1.73,1.731H44.287h-8.574H22.867c-0.955,0-1.731-0.776-1.731-1.731v-0.841h32.572
		c0.475,0,0.858-0.384,0.858-0.856c0-0.474-0.384-0.858-0.858-0.858H21.136V26.297c0-0.955,0.776-1.732,1.731-1.732h34.267
		c0.948,0,1.72,0.769,1.729,1.715H26.429c-0.474,0-0.857,0.384-0.857,0.857c0,0.474,0.384,0.857,0.857,0.857h32.436V45.128z"/>
	<path fill="#23AA6A" d="M34.92,36.927c0.066,0.38,0.386,0.68,0.787,0.708l6.538,0.435v-0.002c0.447,0.031,0.847-0.293,0.904-0.744
		l0.549-4.331l0.164-1.298l1.141,0.006c0.473,0.001,0.856-0.379,0.857-0.851c0.002-0.472-0.379-0.856-0.851-0.858l-1.896-0.008
		c-0.437-0.002-0.798,0.323-0.851,0.747l-0.26,2.048l-0.448,3.529l-5.066-0.336l-0.473-2.655h3.404c0.475,0,0.858-0.383,0.858-0.857
		c0-0.474-0.384-0.858-0.858-0.858h-4.428v0c-0.049,0-0.098,0.005-0.147,0.013c-0.466,0.082-0.777,0.525-0.696,0.991L34.92,36.927
		L34.92,36.927z"/>
	<circle fill="#23AA6A" cx="37.057" cy="39.727" r="0.858"/>
	<circle fill="#23AA6A" cx="41.428" cy="39.727" r="0.858"/>
	<path fill="#23AA6A" d="M23.8,26.28h-0.386c-0.474,0-0.857,0.384-0.857,0.857c0,0.474,0.384,0.857,0.857,0.857H23.8
		c0.473,0,0.856-0.384,0.856-0.857C24.656,26.665,24.272,26.28,23.8,26.28z"/>
	<path fill="#23AA6A" d="M56.185,44.287h0.362c0.474,0,0.857-0.384,0.857-0.856c0-0.474-0.384-0.858-0.857-0.858h-0.362
		c-0.474,0-0.857,0.385-0.857,0.858C55.327,43.903,55.711,44.287,56.185,44.287z"/>
</g>
</svg>
