<?xml version="1.0" encoding="utf-8"?>
<!-- Generator: Adobe Illustrator 16.0.0, SVG Export Plug-In . SVG Version: 6.00 Build 0)  -->
<!DOCTYPE svg PUBLIC "-//W3C//DTD SVG 1.1//EN" "http://www.w3.org/Graphics/SVG/1.1/DTD/svg11.dtd">
<svg version="1.1" id="Layer_1" xmlns="http://www.w3.org/2000/svg" xmlns:xlink="http://www.w3.org/1999/xlink" x="0px" y="0px"
	 width="40px" height="40px" viewBox="0 0 40 40" enable-background="new 0 0 40 40" xml:space="preserve">
<g>
	<path fill="#F7954D" d="M37.928,12.24c0-1.605-0.864-3.098-2.253-3.896L22.249,0.592c-1.362-0.792-3.146-0.789-4.506,0.003
		L4.317,8.346c-1.386,0.8-2.246,2.292-2.246,3.894v15.509c0,1.606,0.863,3.1,2.251,3.897l13.431,7.752
		C18.434,39.792,19.211,40,19.999,40c0.786,0,1.562-0.207,2.243-0.6l13.438-7.758c1.387-0.804,2.248-2.296,2.248-3.894L37.928,12.24
		z M34.659,29.875l-13.437,7.757c-0.742,0.428-1.707,0.428-2.449-0.001L5.341,29.877c-0.758-0.436-1.229-1.251-1.229-2.128V12.24
		c0-0.875,0.47-1.69,1.226-2.126l13.43-7.753c0.373-0.217,0.798-0.332,1.231-0.332c0.432,0,0.854,0.113,1.227,0.329l13.431,7.754
		c0.759,0.436,1.229,1.25,1.229,2.127l0.002,15.509C35.888,28.621,35.416,29.437,34.659,29.875z"/>
	<path fill="#F7954D" d="M29.731,19.441c-0.295-0.16-0.619-0.24-0.973-0.24h-1.886v-1.572c0-0.603-0.216-1.12-0.648-1.552
		c-0.432-0.432-0.949-0.648-1.552-0.648H19.33v-0.314c0-0.602-0.216-1.12-0.648-1.552s-0.949-0.648-1.552-0.648h-3.144
		c-0.603,0-1.119,0.216-1.552,0.648s-0.648,0.95-0.648,1.552v9.43c0,0.603,0.216,1.12,0.648,1.552
		c0.433,0.433,0.949,0.648,1.552,0.648h10.687c0.438,0,0.897-0.112,1.375-0.339c0.479-0.226,0.858-0.513,1.14-0.859l2.897-3.565
		c0.302-0.38,0.452-0.773,0.452-1.179c0-0.235-0.049-0.458-0.147-0.668C30.245,19.833,30.026,19.602,29.731,19.441z M13.044,15.114
		c0-0.262,0.092-0.484,0.274-0.667c0.184-0.184,0.406-0.275,0.668-0.275h3.144c0.262,0,0.484,0.092,0.668,0.275
		c0.183,0.183,0.274,0.406,0.274,0.667v0.629c0,0.262,0.092,0.484,0.275,0.668c0.184,0.183,0.406,0.275,0.668,0.275h5.657
		c0.262,0,0.484,0.092,0.668,0.275c0.184,0.184,0.275,0.406,0.275,0.668v1.572h-7.544c-0.445,0-0.903,0.113-1.375,0.339
		c-0.471,0.226-0.852,0.512-1.139,0.859l-2.515,3.095V15.114z M29.103,21.185l-2.888,3.565c-0.164,0.203-0.396,0.377-0.697,0.521
		c-0.302,0.144-0.583,0.216-0.845,0.216H13.986c-0.347,0-0.521-0.115-0.521-0.345c0-0.104,0.059-0.235,0.177-0.393l2.888-3.565
		c0.171-0.203,0.404-0.375,0.702-0.516s0.578-0.211,0.84-0.211h10.687c0.348,0,0.521,0.114,0.521,0.344
		C29.279,20.913,29.221,21.04,29.103,21.185z"/>
</g>
</svg>
