<?xml version="1.0" encoding="utf-8"?>
<!-- Generator: Adobe Illustrator 16.0.0, SVG Export Plug-In . SVG Version: 6.00 Build 0)  -->
<!DOCTYPE svg PUBLIC "-//W3C//DTD SVG 1.1//EN" "http://www.w3.org/Graphics/SVG/1.1/DTD/svg11.dtd">
<svg version="1.1" id="Layer_1" xmlns="http://www.w3.org/2000/svg" xmlns:xlink="http://www.w3.org/1999/xlink" x="0px" y="0px"
	 width="40px" height="40px" viewBox="0 0 40 40" enable-background="new 0 0 40 40" xml:space="preserve">
<g>
	<defs>
		<path id="SVGID_1_" d="M18.055,0.524L4.13,8.563c-1.208,0.7-1.961,2.002-1.961,3.4v16.075c0,1.398,0.753,2.701,1.961,3.397
			l13.925,8.042c1.208,0.696,2.713,0.696,3.923,0l13.925-8.042c1.061-0.609,1.769-1.686,1.928-2.883V11.448
			c-0.159-1.197-0.867-2.272-1.928-2.885l-13.922-8.04C21.374,0.174,20.695,0,20.016,0C19.338,0,18.66,0.175,18.055,0.524"/>
	</defs>
	<linearGradient id="SVGID_2_" gradientUnits="userSpaceOnUse" x1="6.063" y1="33.9541" x2="34.1433" y2="5.8738">
		<stop  offset="0" style="stop-color:#00AF4D"/>
		<stop  offset="1" style="stop-color:#009C9C"/>
	</linearGradient>
	<use xlink:href="#SVGID_1_"  overflow="visible" fill="url(#SVGID_2_)"/>
	<clipPath id="SVGID_3_">
		<use xlink:href="#SVGID_1_"  overflow="visible"/>
	</clipPath>
</g>
<g>
	<path fill="#FFFFFF" d="M24.494,15.017c-0.415,0-0.749-0.334-0.749-0.749v-2.246h-7.491v2.246c0,0.415-0.336,0.749-0.75,0.749
		c-1.237,0-2.246,1.008-2.246,2.247v10.98c0,0.412,0.335,0.749,0.749,0.749h11.985c0.413,0,0.749-0.337,0.749-0.749v-10.98
		C26.741,16.025,25.732,15.017,24.494,15.017z M23.559,22.918c-0.208,0.271-0.595,0.324-0.868,0.119
		c-0.271-0.207-0.324-0.596-0.118-0.867c0.402-0.53,0.606-1.03,0.606-1.49c0-1.021-0.664-1.852-1.48-1.852
		c-0.585,0-1.061,0.609-1.061,1.359c0,0.341-0.277,0.617-0.619,0.617S19.4,20.528,19.4,20.187c0-0.75-0.476-1.359-1.062-1.359
		c-0.815,0-1.48,0.831-1.48,1.852c0,1.272,1.589,2.702,3.16,3.57c0.335-0.185,0.667-0.393,0.975-0.611
		c0.278-0.195,0.664-0.131,0.861,0.147c0.198,0.279,0.131,0.665-0.146,0.862c-0.446,0.316-0.921,0.604-1.408,0.853
		c-0.088,0.044-0.184,0.067-0.281,0.067c-0.096,0-0.192-0.023-0.281-0.067c-1.034-0.529-1.997-1.221-2.709-1.952
		c-0.933-0.953-1.406-1.92-1.406-2.869c0-1.703,1.219-3.087,2.717-3.087c0.662,0,1.26,0.317,1.68,0.826
		c0.419-0.509,1.018-0.826,1.68-0.826c1.498,0,2.718,1.384,2.718,3.087C24.416,21.414,24.127,22.168,23.559,22.918z"/>
	<path fill="#FFFFFF" d="M35.074,11.963c0-0.412-0.221-0.794-0.576-0.998L20.576,2.926c-0.356-0.206-0.799-0.206-1.152,0
		L5.499,10.965c-0.354,0.204-0.574,0.586-0.574,0.998v16.075c0,0.41,0.219,0.794,0.574,0.998l13.926,8.038
		c0.354,0.205,0.795,0.205,1.151,0l13.922-8.038c0.355-0.207,0.577-0.588,0.577-0.998L35.074,11.963z M28.238,28.243
		c0,1.239-1.008,2.246-2.246,2.246H14.007c-1.239,0-2.247-1.007-2.247-2.246v-10.98c0-1.808,1.289-3.321,2.996-3.669v-1.572
		c-0.827,0-1.498-0.671-1.498-1.497V9.027c0-0.826,0.671-1.497,1.498-1.497h10.486c0.826,0,1.499,0.671,1.499,1.497v1.498
		c0,0.826-0.673,1.497-1.499,1.497v1.573c1.708,0.348,2.997,1.86,2.996,3.668V28.243z"/>
	<polygon fill="#FFFFFF" points="25.243,10.525 25.242,9.027 14.756,9.027 14.756,10.525 25.242,10.525 	"/>
</g>
</svg>
