<?xml version="1.0" encoding="utf-8"?>
<!-- Generator: Adobe Illustrator 16.0.0, SVG Export Plug-In . SVG Version: 6.00 Build 0)  -->
<!DOCTYPE svg PUBLIC "-//W3C//DTD SVG 1.1//EN" "http://www.w3.org/Graphics/SVG/1.1/DTD/svg11.dtd">
<svg version="1.1" id="Layer_1" xmlns="http://www.w3.org/2000/svg" xmlns:xlink="http://www.w3.org/1999/xlink" x="0px" y="0px"
	 width="40px" height="40px" viewBox="0 0 40 40" enable-background="new 0 0 40 40" xml:space="preserve">
<g>
	<defs>
		<path id="SVGID_1_" d="M18.056,0.524L4.13,8.563c-1.208,0.7-1.961,2.002-1.961,3.4v16.075c0,1.398,0.753,2.701,1.961,3.397
			l13.926,8.042c1.208,0.696,2.713,0.696,3.923,0l13.924-8.042c1.061-0.609,1.769-1.686,1.929-2.883V11.448
			c-0.16-1.197-0.868-2.272-1.929-2.885l-13.921-8.04C21.374,0.174,20.695,0,20.016,0C19.338,0,18.659,0.175,18.056,0.524"/>
	</defs>
	<linearGradient id="SVGID_2_" gradientUnits="userSpaceOnUse" x1="6.0625" y1="33.9551" x2="34.1427" y2="5.8749">
		<stop  offset="0" style="stop-color:#E45326"/>
		<stop  offset="1" style="stop-color:#2A3693"/>
	</linearGradient>
	<use xlink:href="#SVGID_1_"  overflow="visible" fill="url(#SVGID_2_)"/>
	<clipPath id="SVGID_3_">
		<use xlink:href="#SVGID_1_"  overflow="visible"/>
	</clipPath>
</g>
<g>
	<rect x="16.18" y="31.159" fill="#FFFFFF" width="8.109" height="0.579"/>
	<polygon fill="#FFFFFF" points="15.02,27.684 14.441,27.684 14.441,30 15.02,30 25.447,30 26.027,30 26.027,27.684 25.447,27.684 	
		"/>
	<rect x="16.178" y="8.261" fill="#FFFFFF" width="8.11" height="0.58"/>
	<rect x="16.179" y="13.475" fill="#FFFFFF" width="8.11" height="13.051"/>
	<path fill="#FFFFFF" d="M35.074,11.963c0-0.412-0.22-0.794-0.576-0.998L20.576,2.926c-0.356-0.206-0.798-0.206-1.152,0
		L5.499,10.965c-0.354,0.204-0.574,0.586-0.574,0.998v16.075c0,0.41,0.219,0.794,0.574,0.998l13.926,8.038
		c0.354,0.205,0.795,0.205,1.151,0l13.922-8.038c0.356-0.207,0.577-0.588,0.577-0.998L35.074,11.963z M27.185,12.895
		c0,0.32-0.26,0.58-0.58,0.58h-1.157v9.601l0,0v3.45h1.158c0.321,0,0.579,0.26,0.579,0.579v3.476c0,0.32-0.258,0.579-0.579,0.579
		h-1.158v1.738H15.02v-1.738h-1.157c-0.32,0-0.579-0.259-0.579-0.579v-3.476c0-0.319,0.259-0.579,0.579-0.579h1.157v-9.601h0.001
		v-3.45h-1.159c-0.32,0-0.578-0.26-0.578-0.58V9.419c0-0.32,0.258-0.579,0.578-0.579h1.159V7.103h10.427V8.84h1.157
		c0.32,0,0.58,0.259,0.58,0.579V12.895z"/>
	<polygon fill="#FFFFFF" points="15.021,9.999 14.44,9.999 14.44,12.316 15.021,12.316 25.447,12.316 26.026,12.316 26.026,9.999 
		25.447,9.999 	"/>
</g>
</svg>
