<?xml version="1.0" encoding="utf-8"?>
<!-- Generator: Adobe Illustrator 16.0.0, SVG Export Plug-In . SVG Version: 6.00 Build 0)  -->
<!DOCTYPE svg PUBLIC "-//W3C//DTD SVG 1.1//EN" "http://www.w3.org/Graphics/SVG/1.1/DTD/svg11.dtd">
<svg version="1.1" id="Layer_1" xmlns="http://www.w3.org/2000/svg" xmlns:xlink="http://www.w3.org/1999/xlink" x="0px" y="0px"
	 width="40px" height="9px" viewBox="0 0 40 9" enable-background="new 0 0 40 9" xml:space="preserve">
<g>
	<path fill="#FFFFFF" d="M30.879,0.53c-0.448,0-0.812,0.364-0.812,0.812v5.74c0,0.448,0.364,0.811,0.812,0.811
		c0.448,0,0.812-0.362,0.812-0.811v-5.74C31.69,0.894,31.327,0.53,30.879,0.53z"/>
	<path fill="#FFFFFF" d="M22.099,0.53c-0.448,0-0.813,0.363-0.813,0.812v5.74c0,0.448,0.364,0.811,0.813,0.811
		s0.811-0.363,0.811-0.811v-5.74C22.909,0.894,22.547,0.53,22.099,0.53z"/>
	<path fill="#FFFFFF" d="M19.055,5.449c-0.395-0.326-0.744-0.474-1.184-0.696l0.339-0.104c0.084-0.037,0.173-0.073,0.256-0.113
		c0.074-0.036,0.147-0.081,0.218-0.122c0.287-0.166,0.497-0.364,0.699-0.625c0.222-0.286,0.314-0.633,0.333-0.99
		c0.033-0.623-0.133-1.17-0.596-1.6c-0.029-0.024-0.08-0.063-0.118-0.101c-0.563-0.435-1.289-0.565-1.984-0.565h-2.175
		c-0.448,0-0.811,0.363-0.811,0.812v5.738c0,0.448,0.363,0.811,0.811,0.811c0.448,0,0.812-0.362,0.812-0.811V5.306
		c0-0.142,0.133-0.214,0.282-0.218c0.301-0.008,0.695,0.183,0.937,0.349c0.681,0.468,1.079,1.054,1.463,1.764
		c0.155,0.284,0.311,0.587,0.502,0.85c0.141,0.194,0.318,0.387,0.548,0.475c0.207,0.079,0.541,0.054,0.726-0.07
		c0.15-0.102,0.29-0.252,0.326-0.436c0.045-0.229-0.018-0.416-0.077-0.639C20.11,6.624,19.672,5.956,19.055,5.449z M17.757,3.607
		c-0.237,0.203-0.566,0.236-0.863,0.185c-0.324-0.057-0.728-0.185-1.02-0.345c-0.072-0.036-0.113-0.067-0.149-0.097
		c-0.076-0.063-0.07-0.145-0.07-0.145V1.918c0.007-0.143,0.173-0.136,0.281-0.144c0.341-0.026,0.775-0.036,1.111,0.019
		c0.299,0.047,0.623,0.161,0.828,0.396c0.174,0.199,0.261,0.468,0.246,0.731C18.105,3.199,17.967,3.428,17.757,3.607z"/>
	<path fill="#FFFFFF" d="M5.087,1.196C4.514,0.683,3.735,0.533,2.987,0.533H0.812C0.373,0.533,0.013,0.881,0,1.316v5.79
		c0.013,0.438,0.374,0.787,0.812,0.787c0.448,0,0.811-0.363,0.811-0.811V4.948c0-0.406,0.125-0.291,0.491-0.124
		C2.237,4.879,2.358,4.937,2.482,4.99c0.303,0.128,0.635,0.233,0.967,0.233h0.004l0.004,0.001c0.483,0.026,0.87-0.037,1.281-0.295
		c0.735-0.458,1.038-1.266,1.061-2.103C5.816,2.173,5.573,1.631,5.087,1.196z M4.089,2.919c-0.016,0.28-0.155,0.509-0.365,0.688
		C3.487,3.811,3.159,3.844,2.861,3.792C2.537,3.736,2.118,3.598,1.832,3.454C1.736,3.405,1.627,3.35,1.623,3.256
		c0-0.446,0-0.891,0-1.337c0-0.147,0.217-0.139,0.28-0.144C2.14,1.757,2.39,1.751,2.627,1.759c0.129,0.004,0.26,0.013,0.387,0.034
		c0.3,0.047,0.623,0.16,0.828,0.396C4.016,2.387,4.104,2.656,4.089,2.919z"/>
	<path fill="#FFFFFF" d="M12.476,0.535c-0.369,0-0.667,0.298-0.667,0.668v3.771c0,0.464-0.079,0.995-0.444,1.321
		c-0.337,0.301-0.667,0.359-1.106,0.359C9.8,6.655,9.39,6.532,9.047,6.223C8.683,5.896,8.54,5.457,8.539,4.974L8.535,1.345
		C8.534,0.896,8.172,0.533,7.723,0.533H7.385c-0.449,0-0.813,0.363-0.813,0.812v3.63c0,0.845,0.239,1.611,0.869,2.194
		c0.632,0.585,1.59,0.805,2.429,0.816c0.09,0.001,0.179-0.001,0.27,0c0.567,0.006,0.989-0.064,1.499-0.316
		c0.478-0.236,0.89-0.591,1.157-1.056c0.282-0.491,0.349-1.083,0.349-1.638V1.203C13.144,0.833,12.845,0.535,12.476,0.535z"/>
	<path fill="#FFFFFF" d="M38.223,5.94c-0.131,0-0.261,0.033-0.375,0.097c-0.354,0.195-0.748,0.299-1.152,0.299
		c-1.314,0-2.38-1.066-2.38-2.38c0-1.315,1.064-2.381,2.38-2.381c0.437,0,0.863,0.12,1.233,0.345
		c0.084,0.048,0.179,0.074,0.275,0.074c0.31,0,0.559-0.251,0.559-0.561c0-0.208-0.116-0.4-0.302-0.495l-0.003-0.002l-0.003-0.001
		c-0.575-0.333-1.222-0.505-1.887-0.505c-2.086,0-3.778,1.69-3.778,3.777c0,2.086,1.691,3.778,3.778,3.778
		c0.734,0,1.445-0.212,2.061-0.612l0.004-0.002c0.227-0.142,0.364-0.389,0.364-0.656C38.997,6.287,38.65,5.94,38.223,5.94z"/>
	<path fill="#FFFFFF" d="M28.602,0.535h-3.567c-0.357,0-0.649,0.291-0.649,0.649v5.898c0,0.448,0.363,0.811,0.812,0.811
		s0.811-0.362,0.811-0.811V4.519h1.646c0.358,0,0.649-0.291,0.649-0.649c0-0.359-0.29-0.65-0.649-0.65h-1.646V1.833h2.595
		c0.359,0,0.648-0.29,0.648-0.649C29.25,0.825,28.96,0.535,28.602,0.535z"/>
	<path fill="#FFFFFF" d="M39.962,1.376c-0.025-0.061-0.062-0.114-0.107-0.16c-0.046-0.046-0.099-0.083-0.159-0.108
		c-0.062-0.026-0.126-0.039-0.193-0.039c-0.068,0-0.134,0.013-0.194,0.039s-0.114,0.062-0.159,0.107
		c-0.046,0.046-0.082,0.1-0.107,0.161c-0.025,0.061-0.038,0.125-0.038,0.194c0,0.089,0.021,0.172,0.066,0.249
		C39.113,1.895,39.174,1.956,39.251,2c0.076,0.045,0.16,0.067,0.251,0.067c0.09,0,0.173-0.022,0.25-0.066
		c0.075-0.045,0.137-0.105,0.182-0.182C39.978,1.743,40,1.66,40,1.57C40,1.501,39.987,1.437,39.962,1.376z M39.837,1.767
		c-0.035,0.06-0.082,0.108-0.142,0.143c-0.061,0.035-0.125,0.053-0.193,0.053c-0.069,0-0.133-0.018-0.192-0.053
		c-0.059-0.035-0.106-0.083-0.142-0.143c-0.035-0.06-0.053-0.125-0.053-0.196s0.018-0.138,0.053-0.198
		c0.035-0.061,0.083-0.109,0.143-0.145c0.059-0.036,0.123-0.053,0.191-0.053s0.133,0.018,0.193,0.053
		c0.06,0.036,0.106,0.084,0.142,0.145c0.035,0.061,0.053,0.127,0.053,0.198S39.872,1.707,39.837,1.767z"/>
	<path fill="#FFFFFF" d="M39.718,1.455c0-0.041-0.008-0.073-0.022-0.097c-0.016-0.024-0.039-0.042-0.069-0.052
		c-0.03-0.011-0.069-0.016-0.115-0.016h-0.184c-0.02,0-0.029,0.009-0.029,0.027v0.5c0,0.013,0.005,0.023,0.013,0.03
		c0.009,0.008,0.019,0.012,0.03,0.012c0.03-0.001,0.046-0.016,0.046-0.042V1.618h0.089l0.132,0.209
		c0.012,0.02,0.029,0.03,0.054,0.031c0.017-0.001,0.029-0.003,0.038-0.005c0.009-0.003,0.014-0.009,0.014-0.019
		s-0.004-0.021-0.012-0.033l-0.123-0.19C39.671,1.6,39.718,1.547,39.718,1.455z M39.61,1.505c-0.013,0.012-0.028,0.021-0.047,0.024
		c-0.02,0.003-0.043,0.005-0.071,0.005h-0.105V1.374h0.112c0.039,0,0.07,0.004,0.094,0.014c0.024,0.01,0.035,0.03,0.035,0.062
		C39.628,1.474,39.622,1.493,39.61,1.505z"/>
</g>
</svg>
