<?xml version="1.0" encoding="utf-8"?>
<!-- Generator: Adobe Illustrator 16.0.0, SVG Export Plug-In . SVG Version: 6.00 Build 0)  -->
<!DOCTYPE svg PUBLIC "-//W3C//DTD SVG 1.1//EN" "http://www.w3.org/Graphics/SVG/1.1/DTD/svg11.dtd">
<svg version="1.1" id="Layer_1" xmlns="http://www.w3.org/2000/svg" xmlns:xlink="http://www.w3.org/1999/xlink" x="0px" y="0px"
	 width="40px" height="40px" viewBox="0 0 40 40" enable-background="new 0 0 40 40" xml:space="preserve">
<g>
	<defs>
		<path id="SVGID_1_" d="M18.055,0.523L4.13,8.563c-1.208,0.699-1.961,2.001-1.961,3.4v16.075c0,1.398,0.753,2.701,1.961,3.397
			l13.925,8.042c1.209,0.696,2.713,0.696,3.924,0l13.924-8.042c1.061-0.609,1.77-1.686,1.929-2.883V11.448
			c-0.159-1.197-0.868-2.272-1.929-2.884L21.98,0.522C21.373,0.174,20.695,0,20.016,0C19.338,0,18.659,0.175,18.055,0.523"/>
	</defs>
	<linearGradient id="SVGID_2_" gradientUnits="userSpaceOnUse" x1="-0.0757" y1="40.0938" x2="36.6237" y2="3.3944">
		<stop  offset="0" style="stop-color:#0097DC"/>
		<stop  offset="1" style="stop-color:#EC008C"/>
	</linearGradient>
	<use xlink:href="#SVGID_1_"  overflow="visible" fill="url(#SVGID_2_)"/>
	<clipPath id="SVGID_3_">
		<use xlink:href="#SVGID_1_"  overflow="visible"/>
	</clipPath>
</g>
<g>
	<defs>
		<rect id="SVGID_4_" x="2.151" y="0" width="35.697" height="40"/>
	</defs>
	<clipPath id="SVGID_5_">
		<use xlink:href="#SVGID_4_"  overflow="visible"/>
	</clipPath>
</g>
<g>
	<path fill="#FFFFFF" d="M21.931,10.923c-0.657,0.094-1.396,0.177-1.932,0.177c-0.537,0-1.275-0.083-1.933-0.177
		c0.434,0.344,1.062,0.641,1.933,0.641C20.87,11.564,21.496,11.267,21.931,10.923z"/>
	<path fill="#FFFFFF" d="M35.074,11.963c0-0.412-0.221-0.794-0.576-0.998L20.575,2.926c-0.356-0.206-0.798-0.206-1.152,0
		L5.499,10.965c-0.354,0.204-0.574,0.586-0.574,0.998v16.075c0,0.41,0.219,0.794,0.574,0.998l13.926,8.038
		c0.354,0.205,0.794,0.205,1.15,0l13.923-8.038c0.355-0.207,0.577-0.588,0.577-0.998L35.074,11.963z M31.018,17.353
		c-0.031,0.083-0.79,1.998-3.99,2.425l-0.27,0.037c-0.07,0.01-0.139-0.02-0.18-0.078l-0.676-0.941
		c-0.286,2.616,0.282,7.817,1.001,10.455l0.109,0.398c0.026,0.095-0.025,0.194-0.117,0.229l-0.389,0.145
		c-0.178,0.063-1.848,0.61-6.508,0.61c-4.688,0-6.335-0.548-6.507-0.609l-0.39-0.146c-0.092-0.034-0.143-0.134-0.116-0.229
		l0.108-0.398c0.719-2.638,1.287-7.84,1.001-10.456l-0.677,0.942c-0.041,0.057-0.111,0.085-0.18,0.077l-0.269-0.037
		c-3.11-0.415-3.907-2.215-3.988-2.419l-0.07-0.19c-0.018-0.049-0.014-0.103,0.009-0.15l0.087-0.174
		c0.237-0.479,2.358-4.715,3.519-5.504c1.096-0.746,3.786-1.893,3.813-1.904l0.125-0.054c0.035-0.015,0.073-0.02,0.111-0.013
		l0.136,0.026c0.023,0.004,2.199,0.418,3.288,0.418c1.094,0,3.264-0.414,3.284-0.418l0.139-0.026
		c0.037-0.007,0.076-0.002,0.11,0.013l0.126,0.054c0.026,0.011,2.704,1.149,3.813,1.904c1.155,0.787,3.279,5.024,3.518,5.504
		l0.087,0.174c0.022,0.047,0.026,0.101,0.009,0.149L31.018,17.353z"/>
	<path fill="#FFFFFF" d="M26.748,12.404c-0.705-0.48-2.272-1.2-3.057-1.548c-0.128,0.199-0.313,0.454-0.561,0.709
		c-0.57,0.586-1.576,1.285-3.132,1.285c-1.556,0-2.563-0.698-3.133-1.285c-0.249-0.257-0.434-0.51-0.561-0.709
		c-0.783,0.349-2.35,1.068-3.056,1.548c-0.546,0.372-1.91,2.686-2.938,4.714c0.251,0.359,0.915,1.037,2.454,1.327l1.531-2.131
		c0.039-0.054,0.104-0.082,0.168-0.079c0.066,0.005,0.125,0.044,0.155,0.103l0.338,0.661c0.482,0.947,0.619,3.011,0.396,5.968
		c-0.16,2.108-0.486,4.379-0.86,5.991c0.651,0.127,2.371,0.389,5.505,0.389c3.022,0,4.698-0.229,5.505-0.392
		c-0.374-1.609-0.7-3.879-0.86-5.988c-0.224-2.96-0.086-5.023,0.396-5.968l0.337-0.661c0.031-0.058,0.089-0.098,0.155-0.103
		c0.067-0.003,0.131,0.025,0.169,0.079l1.53,2.13c1.1-0.208,1.744-0.618,2.095-0.931c0.167-0.149,0.283-0.289,0.36-0.398
		C28.656,15.086,27.292,12.773,26.748,12.404z"/>
</g>
</svg>
