<?xml version="1.0" encoding="utf-8"?>
<!-- Generator: Adobe Illustrator 16.0.0, SVG Export Plug-In . SVG Version: 6.00 Build 0)  -->
<!DOCTYPE svg PUBLIC "-//W3C//DTD SVG 1.1//EN" "http://www.w3.org/Graphics/SVG/1.1/DTD/svg11.dtd">
<svg version="1.1" id="Layer_1" xmlns="http://www.w3.org/2000/svg" xmlns:xlink="http://www.w3.org/1999/xlink" x="0px" y="0px"
	 width="80px" height="80px" viewBox="0 0 80 80" enable-background="new 0 0 80 80" xml:space="preserve">
<g>
	<path fill="#FAA21B" d="M75.855,24.479c0-3.21-1.729-6.196-4.506-7.792L44.498,1.184c-2.725-1.582-6.292-1.578-9.012,0.007
		L8.635,16.692c-2.771,1.6-4.492,4.583-4.492,7.788v31.019c0,3.212,1.727,6.198,4.501,7.793l26.861,15.505
		C36.867,79.584,38.421,80,39.998,80c1.573,0,3.124-0.414,4.487-1.199l26.876-15.517c2.774-1.607,4.496-4.59,4.496-7.785
		L75.855,24.479z M69.317,59.75L42.445,75.264c-1.485,0.855-3.414,0.855-4.898-0.003L10.682,59.753
		c-1.516-0.87-2.456-2.5-2.456-4.254V24.48c0-1.75,0.938-3.379,2.45-4.251L37.535,4.723c0.745-0.434,1.596-0.664,2.462-0.664
		c0.864,0,1.711,0.227,2.454,0.659l26.861,15.508c1.518,0.872,2.46,2.501,2.46,4.254l0.002,31.019
		C71.774,57.242,70.833,58.872,69.317,59.75z"/>
	<path fill="#FAA21B" d="M60.637,26.198H49.413v-1.959c0-1.989-1.618-3.607-3.606-3.607h-9.13c-1.989,0-3.607,1.618-3.607,3.607
		v1.959H21.846c-1.733,0-3.144,1.41-3.144,3.144v22.091c0,1.733,1.41,3.143,3.144,3.143h38.791c1.734,0,3.145-1.41,3.145-3.143
		V29.342C63.781,27.608,62.371,26.198,60.637,26.198z M34.866,24.239c0-0.999,0.813-1.811,1.811-1.811h9.13
		c0.998,0,1.811,0.813,1.811,1.811v1.959H34.866V24.239z M60.637,52.78H21.846c-0.743,0-1.348-0.605-1.348-1.348V34.104
		l13.787,6.687c0.279,1.704,1.763,3.009,3.544,3.009h6.825c1.781,0,3.264-1.305,3.544-3.009l8.611-4.177
		c0.446-0.217,0.632-0.754,0.416-1.2c-0.217-0.446-0.754-0.633-1.2-0.416l-8.03,3.895c-0.525-1.332-1.825-2.277-3.341-2.277h-6.825
		c-1.517,0-2.815,0.946-3.342,2.277l-13.989-6.786v-2.766c0-0.744,0.604-1.348,1.348-1.348h38.791c0.743,0,1.348,0.604,1.348,1.348
		v22.091h0.001C61.985,52.175,61.381,52.78,60.637,52.78z M36.033,40.208c0-0.99,0.806-1.795,1.796-1.795h6.825
		c0.989,0,1.795,0.805,1.795,1.795s-0.806,1.796-1.795,1.796h-6.825C36.839,42.004,36.033,41.198,36.033,40.208z"/>
	<path fill="#FAA21B" d="M59.54,33.294l-0.551,0.267c-0.447,0.217-0.633,0.754-0.416,1.2c0.154,0.32,0.475,0.506,0.808,0.506
		c0.132,0,0.266-0.029,0.392-0.09l0.551-0.268c0.446-0.216,0.633-0.754,0.417-1.2C60.523,33.264,59.986,33.077,59.54,33.294z"/>
</g>
</svg>
