<?xml version="1.0" encoding="utf-8"?>
<!-- Generator: Adobe Illustrator 16.0.0, SVG Export Plug-In . SVG Version: 6.00 Build 0)  -->
<!DOCTYPE svg PUBLIC "-//W3C//DTD SVG 1.1//EN" "http://www.w3.org/Graphics/SVG/1.1/DTD/svg11.dtd">
<svg version="1.1" id="Layer_1" xmlns="http://www.w3.org/2000/svg" xmlns:xlink="http://www.w3.org/1999/xlink" x="0px" y="0px"
	 width="40px" height="40px" viewBox="0 0 40 40" enable-background="new 0 0 40 40" xml:space="preserve">
<g>
	<defs>
		<path id="SVGID_1_" d="M21.945,39.477l13.924-8.039c1.209-0.7,1.963-2.002,1.963-3.4V11.962c0-1.397-0.754-2.702-1.963-3.397
			L21.945,0.523c-1.208-0.697-2.714-0.697-3.924,0L4.097,8.565c-1.061,0.61-1.769,1.686-1.929,2.882v17.106
			c0.16,1.196,0.868,2.271,1.929,2.884l13.921,8.04C18.626,39.827,19.304,40,19.984,40C20.663,40,21.34,39.825,21.945,39.477"/>
	</defs>
	
		<linearGradient id="SVGID_2_" gradientUnits="userSpaceOnUse" x1="-288.3774" y1="121.8643" x2="-260.2968" y2="93.7836" gradientTransform="matrix(-1 0 0 -1 -254.4395 127.9102)">
		<stop  offset="0" style="stop-color:#E45326"/>
		<stop  offset="1" style="stop-color:#E7B022"/>
	</linearGradient>
	<use xlink:href="#SVGID_1_"  overflow="visible" fill="url(#SVGID_2_)"/>
	<clipPath id="SVGID_3_">
		<use xlink:href="#SVGID_1_"  overflow="visible"/>
	</clipPath>
</g>
<g>
	<path fill="#FFFFFF" d="M23.215,12.676c0-0.503-0.408-0.913-0.913-0.913h-4.603c-0.503,0-0.913,0.409-0.913,0.913v0.988h6.429
		V12.676z"/>
	<path fill="#FFFFFF" d="M21.722,21.634c0.499,0,0.905-0.407,0.905-0.906s-0.406-0.905-0.905-0.905H18.28
		c-0.499,0-0.906,0.406-0.906,0.905s0.407,0.906,0.906,0.906H21.722z"/>
	<path fill="#FFFFFF" d="M30.46,15.249c0-0.374-0.305-0.679-0.68-0.679h-19.56c-0.375,0-0.68,0.305-0.68,0.679v1.395l7.054,3.422
		c0.266-0.672,0.92-1.149,1.685-1.149h3.442c0.765,0,1.419,0.477,1.684,1.149l4.05-1.964c0.225-0.109,0.496-0.016,0.604,0.209
		c0.109,0.225,0.016,0.496-0.21,0.605l-4.342,2.106c-0.141,0.858-0.889,1.517-1.786,1.517H18.28c-0.898,0-1.646-0.658-1.787-1.517
		L9.541,17.65v8.738c0,0.374,0.305,0.679,0.68,0.679h19.56c0.375,0,0.68-0.305,0.68-0.679l0,0V15.249z M29.622,18.056l-0.277,0.135
		c-0.064,0.03-0.132,0.045-0.198,0.045c-0.167,0-0.329-0.094-0.407-0.256c-0.109-0.224-0.016-0.495,0.21-0.604l0.277-0.135
		c0.226-0.109,0.496-0.015,0.605,0.21C29.94,17.677,29.848,17.947,29.622,18.056z"/>
	<path fill="#FFFFFF" d="M35.074,11.963c0-0.412-0.221-0.794-0.576-0.998L20.576,2.926c-0.356-0.206-0.798-0.206-1.152,0
		L5.499,10.965c-0.354,0.204-0.574,0.586-0.574,0.998v16.075c0,0.41,0.219,0.793,0.574,0.998l13.926,8.038
		c0.354,0.205,0.795,0.205,1.151,0l13.922-8.038c0.355-0.207,0.577-0.588,0.577-0.998L35.074,11.963z M31.365,26.388
		c0,0.874-0.711,1.585-1.585,1.585h-19.56c-0.875,0-1.585-0.711-1.585-1.585V15.249c0-0.874,0.711-1.585,1.585-1.585h5.659v-0.988
		c0-1.003,0.816-1.819,1.819-1.819h4.603c1.004,0,1.819,0.815,1.819,1.819v0.988h5.659c0.874,0,1.585,0.711,1.585,1.585V26.388z"/>
</g>
</svg>
